<?xml version="1.0" encoding="UTF-8" standalone="no"?>
<svg
   xmlns:dc="http://purl.org/dc/elements/1.1/"
   xmlns:cc="http://creativecommons.org/ns#"
   xmlns:rdf="http://www.w3.org/1999/02/22-rdf-syntax-ns#"
   xmlns:svg="http://www.w3.org/2000/svg"
   xmlns="http://www.w3.org/2000/svg"
   xmlns:sodipodi="http://sodipodi.sourceforge.net/DTD/sodipodi-0.dtd"
   xmlns:inkscape="http://www.inkscape.org/namespaces/inkscape"
   version="1.1"
   id="svg1309"
   width="508"
   height="142"
   viewBox="0 0 508 142"
   sodipodi:docname="Strepen2.svg"
   inkscape:version="1.0.1 (3bc2e813f5, 2020-09-07)">
  <metadata
     id="metadata1315">
    <rdf:RDF>
      <cc:Work
         rdf:about="">
        <dc:format>image/svg+xml</dc:format>
        <dc:type
           rdf:resource="http://purl.org/dc/dcmitype/StillImage" />
        <dc:title></dc:title>
      </cc:Work>
    </rdf:RDF>
  </metadata>
  <defs
     id="defs1313" />
  <sodipodi:namedview
     pagecolor="#ffffff"
     bordercolor="#666666"
     borderopacity="1"
     objecttolerance="10"
     gridtolerance="10"
     guidetolerance="10"
     inkscape:pageopacity="0"
     inkscape:pageshadow="2"
     inkscape:window-width="1600"
     inkscape:window-height="837"
     id="namedview1311"
     showgrid="false"
     inkscape:zoom="1.78"
     inkscape:cx="330.15696"
     inkscape:cy="71"
     inkscape:window-x="-8"
     inkscape:window-y="-8"
     inkscape:window-maximized="1"
     inkscape:current-layer="g1317" />
  <g
     inkscape:groupmode="layer"
     inkscape:label="Image"
     id="g1317">
    <path
       style="fill:none;stroke:#000000;stroke-opacity:1"
       d="m 374.03175,6.0158684 h -37.45078 c -38.89074,0 -44.12595,0.43205 -52.54922,4.3367596 -6.24024,2.89274 -14.56431,11.49652 -17.79697,18.395 -2.46675,5.26402 -2.70303,6.81721 -2.70303,17.76824 0,11.36387 0.1655,12.34927 3.12193,18.5886 3.92248,8.27809 8.95642,13.35121 16.96839,17.100465 7.30184,3.416945 19.74056,4.747358 44.75855,4.787258 16.94688,0.02703 20.47272,1.02059 23.07386,6.502084 2.87302,6.054436 1.18001,13.570015 -3.7341,16.576375 -3.03956,1.85955 -5.03372,1.93894 -42.65476,1.69799 l -39.46614,-0.25277 -14.58502,-45.500002 c -8.02176,-25.025 -15.16164,-46.55231 -15.8664,-47.83847 -2.28328,-4.16692 -8.38578,-10.2583496 -12.25399,-12.2317596 -4.9854,-2.54337 -14.90785,-3.84144 -22.40359,-2.93088 -9.6921,1.17737 -17.6536,6.06475 -22.02194,13.5187696 -1.88909,3.22349 -40.43679,120.656212 -40.43679,123.187702"
       id="path1886"
       sodipodi:nodetypes="csssssssssscsssssc" />
    <path
       id="path1923"
       style="fill:none;stroke:#000000;stroke-width:1px;stroke-linecap:butt;stroke-linejoin:miter;stroke-opacity:1"
       d="m 106.74157,52.247191 38.76405,-0.561798 m -37.07865,47.752809 34.83146,3.932588 M 69.101124,142.13483 101.1236,103.37079 M 46.629213,57.865169 83.146067,35.393258 M -1.6853933,17.977528 36.516854,44.382022 m 67.415726,65.168538 0.5618,42.69663 M 60.11236,106.46067 96.067416,89.044943 M 51.123596,66.853933 87.078652,49.438202 M 35.393258,-10.674157 42.696629,49.438202 M -2.8089888,71.910112 42.696629,72.47191 M -3.3707865,120.22472 H 41.011236 M 112.03175,6.0158684 V 58.515868 c 0,51.166672 -0.0508,52.550792 -2,54.500002 -1.21319,1.21319 -3.33333,2 -5.38922,2 -6.431546,0 -7.274901,-1.59767 -13.742703,-26.034455 C 76.583954,34.892878 74.637522,28.132708 71.425115,21.343648 65.445857,8.7071684 55.74122,2.9084284 40.501355,2.8659284 27.98408,2.8310384 20.617597,5.3072484 13.697012,11.876058 c -5.250484,4.9836 -7.5567679,9.88366 -8.664126,18.40826 -0.5166636,3.97736 -0.9532819,30.29405 -0.9702639,58.481555 L 4.0317461,140.01587 M 140.03175,6.0158684 V 62.337738 c 0,63.016922 0.11643,61.856102 -7.01688,69.959972 -5.97761,6.79092 -14.12114,10.0478 -25.98312,10.39154 -6.46516,0.18735 -11.12777,-0.22287 -14.595421,-1.28411 -2.80248,-0.85768 -7.30248,-3.22225 -10,-5.25462 C 74.128023,129.89088 71.616871,123.4204 59.149565,76.147508 51.801856,48.286838 47.633004,34.172688 46.382133,32.921818 c -1.021532,-1.02154 -3.288439,-2.14356 -5.037571,-2.49338 -2.578437,-0.51569 -3.665864,-0.15043 -5.746528,1.93024 l -2.566288,2.56629 v 52.54545 52.545452" />
    <path
       id="path1947"
       style="fill:none;stroke:#000000;stroke-width:1px;stroke-linecap:butt;stroke-linejoin:miter;stroke-opacity:1"
       d="m 329.21348,-10.11236 1.1236,54.494382 m -72.47191,5.05618 41.57303,-2.247191 m 44.38202,4.494382 -13.48314,44.382023 m 18.53932,0 35.39326,-1.685394 m -44.94382,11.235958 8.98877,42.13483 m -39.88764,-47.19101 1.12359,55.61798 m -38.76404,-52.2472 -36.51686,52.2472 M 258.98876,68.539326 224.7191,89.325843 M 212.35955,56.179775 246.62921,33.146067 M 207.30337,-6.1797753 206.17978,39.88764 m -38.20225,-10.112359 34.83146,21.348315 m -55.61798,42.134831 35.39326,15.168543 m 191.44748,-75.540942 -37.79598,0.31492 c -34.61004,0.28838 -38.03094,0.46899 -40.58352,2.14271 -5.6016,3.67294 -7.23091,14.08632 -2.95525,18.88785 3.70648,4.16233 7.2468,4.78436 27.23027,4.78436 27.66769,0 38.04943,1.90695 46.82596,8.60114 11.29844,8.61774 16.43237,29.087349 11.37266,45.344212 -3.54637,11.39452 -12.96053,20.90212 -24.5489,24.79257 -4.42422,1.4853 -11.38686,1.73483 -56.56533,2.02719 l -51.52009,0.3334 -10.80183,-33.79926 C 210.51007,30.656198 210.99267,32.065328 208.8718,30.930268 c -2.59765,-1.39022 -6.41725,-0.43725 -7.32274,1.82697 -0.38681,0.96725 -8.26504,25.38363 -17.50717,54.258635 l -16.80388,52.499997" />
    <path
       id="path1961"
       style="fill:none;stroke:#000000;stroke-width:1px;stroke-linecap:butt;stroke-linejoin:miter;stroke-opacity:1"
       d="m 471.34831,132.58427 39.88765,-20.78652 M 457.30337,91.573034 513.48315,65.168539 M 449.4382,45.505618 483.14607,14.606742 m -40.44944,23.595505 0.5618,-45.5056178 m -34.26967,25.2808988 29.21349,27.52809 m -48.31461,31.460674 38.20225,4.494382 m -8.42697,47.191016 h -46.62921 m 137.99804,10.4365 c 0,-2.69823 -37.56963,-118.211092 -39.59443,-121.738362 -3.2371,-5.63915 -9.64041,-10.9190796 -15.67183,-12.9223896 -5.83603,-1.93842 -18.54365,-2.14802 -24.37141,-0.40198 -5.83603,1.74852 -12.86112,7.2790296 -15.95745,12.5625096 -2.02105,3.44865 -40.40488,120.271182 -40.40488,122.973652 m 107.3565,0.45425 -14.337,-44.749997 C 460.1659,70.653368 452.41657,46.358978 450.83052,41.278328 c -3.05226,-9.77747 -4.91748,-11.95145 -9.30848,-10.84937 -2.82969,0.7102 -2.84553,0.75113 -14.54623,37.58691 -4.97908,15.675005 -12.19763,38.287502 -16.04122,50.250002 l -6.98836,21.75" />
  </g>
</svg>
