<?xml version="1.0" encoding="UTF-8" standalone="no"?>
<!-- Created with Inkscape (http://www.inkscape.org/) -->

<svg
   xmlns:dc="http://purl.org/dc/elements/1.1/"
   xmlns:cc="http://creativecommons.org/ns#"
   xmlns:rdf="http://www.w3.org/1999/02/22-rdf-syntax-ns#"
   xmlns:svg="http://www.w3.org/2000/svg"
   xmlns="http://www.w3.org/2000/svg"
   xmlns:sodipodi="http://sodipodi.sourceforge.net/DTD/sodipodi-0.dtd"
   xmlns:inkscape="http://www.inkscape.org/namespaces/inkscape"
   width="800mm"
   height="400mm"
   viewBox="0 0 800 400"
   version="1.1"
   id="svg73577"
   inkscape:version="0.92.4 (5da689c313, 2019-01-14)"
   sodipodi:docname="F.svg">
  <defs
     id="defs73571" />
  <sodipodi:namedview
     id="base"
     pagecolor="#ffffff"
     bordercolor="#666666"
     borderopacity="1.0"
     inkscape:pageopacity="0.0"
     inkscape:pageshadow="2"
     inkscape:zoom="0.34177601"
     inkscape:cx="989.13967"
     inkscape:cy="1021.2293"
     inkscape:document-units="mm"
     inkscape:current-layer="layer1"
     showgrid="true"
     inkscape:window-width="1920"
     inkscape:window-height="1001"
     inkscape:window-x="-9"
     inkscape:window-y="-9"
     inkscape:window-maximized="1"
     showguides="true"
     inkscape:guide-bbox="true">
    <inkscape:grid
       type="xygrid"
       id="grid75232" />
  </sodipodi:namedview>
  <metadata
     id="metadata73574">
    <rdf:RDF>
      <cc:Work
         rdf:about="">
        <dc:format>image/svg+xml</dc:format>
        <dc:type
           rdf:resource="http://purl.org/dc/dcmitype/StillImage" />
        <dc:title></dc:title>
      </cc:Work>
    </rdf:RDF>
  </metadata>
  <g
     inkscape:label="Laag 1"
     inkscape:groupmode="layer"
     id="layer1"
     transform="translate(0,103)">
    <g
       id="g141069"
       transform="matrix(1.2271038,0,0,1.2271038,5.8670421,25.171369)">
      <path
         d="M 9.1167936,207.80411 V -92.19588 H 255.84023 v 75.294892 h -114.0236 v 54.456096 h 84.53474 v 75.294872 h -84.53474 v 94.95413 z"
         style="font-style:normal;font-variant:normal;font-weight:normal;font-stretch:normal;font-size:402.62124634px;line-height:18.04999924;font-family:'Gill Sans Ultra Bold';-inkscape-font-specification:'Gill Sans Ultra Bold, ';letter-spacing:0px;word-spacing:0px;fill:none;fill-opacity:1;stroke:#ff0000;stroke-width:0.22499999;stroke-miterlimit:4;stroke-dasharray:none;stroke-opacity:1"
         id="path75271"
         inkscape:connector-curvature="0" />
      <path
         inkscape:connector-curvature="0"
         id="path75842"
         d="m 83.155293,191.44096 c -0.44769,-0.37321 -1.18695,-1.63026 -1.64281,-2.79345 -0.45585,-1.16319 -1.61959,-3.27349 -2.58609,-4.68957 -2.19816,-3.22064 -2.73875,-4.78967 -2.20618,-6.40335 0.77476,-2.34758 2.60903,-3.36861 7.99979,-4.45303 4.65129,-0.93567 5.98666,-1.95182 6.36811,-4.84582 0.21696,-1.64602 -0.88179,-4.74501 -2.27331,-6.41182 l -0.98496,-1.17983 -1.59501,1.07646 c -2.24449,1.51478 -4.70024,2.41023 -7.99199,2.91414 -7.61184,1.16524 -16.06869,-2.51341 -19.93471,-8.67142 -0.60906,-0.97014 -1.14919,-1.82257 -1.20029,-1.8943 -0.22853,-0.32077 -3.72779,2.60148 -4.19346,3.50199 -1.41352,2.73345 -0.17228,4.77185 4.39144,7.21175 4.74391,2.53623 6.5078,5.08205 5.87142,8.47421 -0.36922,1.96811 -2.00389,3.51609 -4.86922,4.611 -1.43513,0.54839 -3.14274,1.52791 -3.9545,2.26837 -1.86913,1.70497 -2.76858,2.14973 -4.39277,2.17214 -1.79936,0.0248 -2.83934,-0.59348 -3.08781,-1.83585 -0.11603,-0.58012 -0.4992,-1.12185 -0.87869,-1.2423 -0.37012,-0.11747 -0.9251,-0.59842 -1.23328,-1.06877 -0.30819,-0.47035 -0.77403,-0.85519 -1.0352,-0.85519 -0.90172,0 -1.91344,-1.49849 -1.91344,-2.83406 0,-2.16186 0.83199,-2.59869 5.42273,-2.84716 5.52249,-0.29889 7.16951,-1.27131 5.70197,-3.36651 -0.73816,-1.05388 -2.68823,-1.88514 -5.41346,-2.30761 -6.26417,-0.97108 -7.94555,-4.42225 -5.03492,-10.33458 1.85408,-3.76618 4.82618,-6.62441 9.91198,-9.53225 2.37419,-1.35746 4.36765,-2.62685 4.42992,-2.82088 0.0623,-0.19403 0.76556,-2.09903 1.56287,-4.23333 1.79988,-4.81805 1.75906,-4.54679 0.70502,-4.68505 -1.94928,-0.2557 -5.36915,-1.60934 -7.42833,-2.94025 -6.17923,-3.99383 -10.80435,-10.6475 -12.45683,-17.92029 -0.68878,-3.03143 -0.85428,-3.39167 -1.59584,-3.47361 -1.42167,-0.15709 -3.29884,-1.23491 -3.8631,-2.21808 l -0.54116,-0.94291 -2.13862,1.58487 c -2.02952,1.50401 -3.98352,2.54949 -4.76499,2.54949 -0.19579,0 -0.62028,-0.40338 -0.94332,-0.8964 -0.83476,-1.27401 -0.30152,-2.21097 2.5204,-4.42863 3.31735,-2.60701 2.0712,-3.12188 -2.12078,-0.87625 -2.23817,1.19899 -3.99185,1.13468 -4.7224,-0.17317 -1.14894,-2.05685 0.50323,-3.86135 4.17937,-4.56473 3.16732,-0.606014 4.94782,-1.126791 4.94782,-1.447171 0,-0.303097 -0.19817,-0.364687 -3.3079,-1.028024 -2.11075,-0.450237 -2.91841,-0.864754 -3.38553,-1.737581 -0.50765,-0.948552 -0.13922,-1.639343 1.21778,-2.283281 2.01061,-0.954098 3.57945,-0.704592 7.59232,1.207475 4.0714,1.939953 4.8849,2.09251 5.79509,1.086776 0.5008,-0.55338 0.56783,-1.036866 0.36682,-2.645739 -0.30904,-2.473458 0.35221,-3.732703 1.96011,-3.732703 1.31743,0 2.35435,1.011387 2.64941,2.584178 0.31895,1.700159 -0.43156,13.13292 -0.92231,14.0499 -1.10009,2.05553 3.05716,9.29101 8.19982,14.27137 2.23689,2.16629 6.15451,5.07786 6.83243,5.07786 0.12145,0 -0.35673,-0.67468 -1.06262,-1.4993 -2.07375,-2.42252 -3.42486,-5.53176 -3.62612,-8.34464 -0.0961,-1.34305 -0.003,-2.93312 0.20581,-3.53349 0.36146,-1.03687 0.32315,-1.11555 -0.76425,-1.56989 -2.79153,-1.16638 -5.52308,-5.87466 -5.52308,-9.51994 0,-5.46788 3.9587,-10.518577 7.83671,-9.998426 2.33189,0.312771 3.12228,1.107487 5.0965,5.12439 0.0313,0.0636 0.86393,-0.439564 1.85038,-1.118124 0.98645,-0.67856 2.27057,-1.338516 2.85359,-1.466569 0.92983,-0.204224 1.06004,-0.383203 1.06004,-1.457035 0,-1.510047 0.7459,-3.008874 1.9808,-3.980246 1.31322,-1.032975 1.48833,-0.934082 1.1942,0.674406 -0.14192,0.776112 -0.12061,1.411111 0.0474,1.411111 0.16797,0 0.30541,-0.158292 0.30541,-0.351761 0,-0.563598 2.50163,-3.174543 3.57194,-3.728021 0.53852,-0.27848 1.29293,-0.506328 1.67647,-0.506328 0.63466,0 0.58868,0.180446 -0.51165,2.007719 -0.66494,1.104245 -1.20899,2.126915 -1.20899,2.272601 0,0.145686 0.67469,-0.120876 1.49931,-0.592358 0.86963,-0.497219 2.07214,-0.859026 2.86327,-0.861491 l 1.36397,-0.0042 -1.27577,1.412127 c -0.70168,0.77667 -1.27578,1.547464 -1.27578,1.712875 0,0.165412 1.00267,0.394379 2.22815,0.508816 2.83409,0.264651 5.86931,1.381112 8.40682,3.092325 2.06934,1.39549 2.41781,1.42087 2.41781,0.176119 0,-1.254947 1.64431,-3.253654 3.36002,-4.084216 3.210157,-1.55401 6.967366,-0.39288 9.343707,2.887569 2.71464,3.747452 2.17918,9.157297 -1.286927,13.001937 -1.275024,1.41428 -6.24778,3.19074 -6.24778,3.19074 l -0.18013,0.53659 c 0,0 2.987068,6.20643 1.882464,9.33722 -0.718434,2.03628 -3.048354,5.06416 -4.777144,6.20823 -0.77165,0.51064 -1.35352,0.97793 -1.29305,1.0384 0.28822,0.28821 5.829767,-1.38113 8.104205,-2.44132 6.903652,-3.21804 11.059602,-8.41686 12.086812,-15.1199 0.27726,-1.80921 0.66806,-3.84405 0.86845,-4.52187 0.20039,-0.67782 0.36494,-2.02719 0.36566,-2.99862 10e-4,-2.07293 0.96155,-3.906301 2.31487,-4.420828 2.99129,-1.137281 4.26156,1.092354 2.23987,3.931548 -0.40776,0.57265 -0.65847,1.25723 -0.55714,1.52129 0.10542,0.2747 1.24223,0.6692 2.65698,0.92203 2.13319,0.38122 2.88991,0.35906 5.51071,-0.16143 2.36233,-0.46915 3.29712,-0.5178 4.20325,-0.21875 1.55992,0.51482 2.7684,1.84604 2.62101,2.88721 -0.11589,0.81866 -0.16331,0.82736 -4.08601,0.7489 -2.18281,-0.0437 -3.96875,-0.0102 -3.96875,0.0744 0,0.45496 1.90867,1.80959 4.32459,3.06929 2.92216,1.52367 4.49486,3.02835 4.49486,4.30048 0,2.16072 -2.21008,2.18123 -5.4985,0.051 -3.19993,-2.07287 -4.9134,-2.17055 -2.75821,-0.15724 2.42735,2.26754 3.35921,5.66325 1.62173,5.90954 -1.12801,0.15989 -2.34114,-0.72276 -3.81721,-2.77733 -1.44743,-2.01472 -2.39944,-2.2247 -4.71966,-1.04102 -0.76197,0.38873 -2.16652,0.8743 -3.12123,1.07905 -1.69762,0.36407 -1.75202,0.41646 -2.47175,2.38003 -2.35736,6.43136 -8.3061,12.75031 -14.955947,15.88672 -2.0158,0.95076 -2.68168,1.42978 -2.52945,1.81964 1.38032,3.53489 1.928433,9.46297 1.17426,12.7 l -0.36986,1.5875 1.67325,1.52277 c 2.877742,2.61894 4.056436,3.06955 7.903127,3.02133 7.5855,-0.0951 14.95629,-3.71383 17.15973,-8.42465 1.50397,-3.21538 0.74755,-6.93557 -1.98325,-9.75389 -3.24871,-3.35285 -5.9314,1.35393 -8.66906,5.46538 -2.35071,3.53033 -2.62237,3.84551 -3.57855,4.15196 -4.05385,1.29921 -6.403434,-4.90004 -3.82447,-10.09064 3.60664,-7.25897 17.86451,-8.62262 22.22852,0.29709 2.88329,5.89325 1.67044,11.7602 -3.51764,17.01595 -2.8165,2.85323 -5.80078,4.71939 -9.66739,6.0453 -2.13388,0.73173 -3.56024,0.9518 -7.00136,1.08023 -4.197904,0.15668 -4.674524,0.27294 -3.999707,0.9757 0.841197,0.87602 2.147587,6.45917 2.146307,9.17278 -0.003,5.69372 -2.062087,6.81689 -9.299857,5.07202 -3.81882,-0.92063 -4.79345,-0.78739 -5.98927,0.81881 l -0.72228,0.97014 0.72052,0.97014 c 0.82805,1.11493 1.61411,1.57225 4.44983,2.58883 2.63005,0.94286 4.139627,2.20365 4.139627,3.45738 0,1.07242 -0.568557,1.80309 -1.403044,1.80309 -0.306013,0 -1.093443,0.49053 -1.749853,1.09008 -0.93879,0.85744 -1.42611,1.05551 -2.28349,0.92811 -0.79339,-0.11789 -1.36136,0.0655 -2.08721,0.67381 -1.23755,1.03722 -3.24591,1.09823 -4.40288,0.13375 z"
         style="fill:none;stroke:#ff0000;stroke-width:0.22499999;stroke-miterlimit:4;stroke-dasharray:none;stroke-opacity:1" />
    </g>
  </g>
</svg>
