<?xml version="1.0" encoding="UTF-8" standalone="no"?>
<svg
   xmlns:dc="http://purl.org/dc/elements/1.1/"
   xmlns:cc="http://creativecommons.org/ns#"
   xmlns:rdf="http://www.w3.org/1999/02/22-rdf-syntax-ns#"
   xmlns:svg="http://www.w3.org/2000/svg"
   xmlns="http://www.w3.org/2000/svg"
   xmlns:sodipodi="http://sodipodi.sourceforge.net/DTD/sodipodi-0.dtd"
   xmlns:inkscape="http://www.inkscape.org/namespaces/inkscape"
   version="1.1"
   id="svg36612"
   width="500"
   height="500"
   viewBox="0 0 500 500"
   sodipodi:docname="Oefening 2D hoofd.svg"
   inkscape:version="1.0.1 (c497b03c, 2020-09-10)">
  <metadata
     id="metadata36618">
    <rdf:RDF>
      <cc:Work
         rdf:about="">
        <dc:format>image/svg+xml</dc:format>
        <dc:type
           rdf:resource="http://purl.org/dc/dcmitype/StillImage" />
        <dc:title />
      </cc:Work>
    </rdf:RDF>
  </metadata>
  <defs
     id="defs36616" />
  <sodipodi:namedview
     pagecolor="#ffffff"
     bordercolor="#666666"
     borderopacity="1"
     objecttolerance="10"
     gridtolerance="10"
     guidetolerance="10"
     inkscape:pageopacity="0"
     inkscape:pageshadow="2"
     inkscape:window-width="1440"
     inkscape:window-height="775"
     id="namedview36614"
     showgrid="false"
     inkscape:zoom="1.328"
     inkscape:cx="250"
     inkscape:cy="460.84337"
     inkscape:window-x="0"
     inkscape:window-y="23"
     inkscape:window-maximized="1"
     inkscape:current-layer="g36620"
     inkscape:document-rotation="0" />
  <g
     inkscape:groupmode="layer"
     inkscape:label="Image"
     id="g36620">
    <path
       style="fill:#000000"
       d="m 265,428.99347 c 0,-2.46733 -0.93232,-2.9697 -3.61702,-1.94898 -2.23111,0.84827 -2.36353,0.72621 -1.77148,-1.63274 0.61906,-2.46652 0.52055,-2.52715 -3.02537,-1.86193 -2.77957,0.52145 -3.5953,0.36785 -3.3757,-0.63565 0.15926,-0.72779 -0.24717,-1.34372 -0.90319,-1.36872 C 250.8576,421.49021 247,417.48985 247,416.04181 c 0,-1.26501 -1.02772,-1.31023 -2.89572,-0.12742 -0.76764,0.48607 -1.1248,1.58977 -0.79367,2.45266 1.24333,3.24008 -1.31088,2.56807 -2.67831,-0.70466 -0.78553,-1.88003 -1.93149,-3.72926 -2.54658,-4.10941 -0.61509,-0.38015 -0.91714,-1.01674 -0.67122,-1.41464 0.24592,-0.39791 -0.87174,-0.82396 -2.48369,-0.94679 -2.69688,-0.20549 -3.46597,0.59114 -3.02445,3.13278 0.0787,0.45338 -0.31796,0.53932 -0.88158,0.19098 C 230.46115,414.16697 230,412.82033 230,411.52277 c 0,-3.17284 -1.01613,-5.63083 -2.06085,-4.98516 -0.46821,0.28937 -1.6154,-0.64007 -2.54932,-2.06541 -1.16337,-1.77553 -1.93055,-2.21533 -2.43645,-1.39677 -0.51017,0.82548 -1.10227,0.51488 -1.91563,-1.0049 -0.90942,-1.69926 -1.48423,-1.94487 -2.52677,-1.07965 -1.03108,0.85572 -1.59738,0.69398 -2.39985,-0.68543 -0.98014,-1.68483 -1.05234,-1.68853 -1.08072,-0.0555 -0.0167,0.9625 -0.5087,1.75 -1.09327,1.75 -0.58457,0 -0.92207,-1.0125 -0.75,-2.25 0.2331,-1.67641 -0.13327,-2.17509 -1.43714,-1.95616 -0.98369,0.16517 -1.75,-0.32858 -1.75,-1.12756 0,-0.78176 -0.67005,-1.97748 -1.48899,-2.65714 -0.81894,-0.67967 -1.29063,-1.55671 -1.04819,-1.94898 0.24244,-0.39228 -0.68669,-2.92879 -2.06473,-5.63669 -1.80694,-3.55072 -2.36024,-5.89933 -1.98446,-8.42347 0.28659,-1.925 0.28169,-2.96278 -0.0109,-2.30618 -0.29257,0.65661 -1.17788,0.94596 -1.96735,0.64301 C 200.4074,375.94236 200,376.54961 200,378.47634 c 0,1.7187 -0.45144,2.53247 -1.25,2.25325 -0.6875,-0.24039 -1.10824,-1.21939 -0.93499,-2.17555 0.17326,-0.95616 -0.50174,-2.40025 -1.5,-3.20908 -1.30864,-1.06032 -1.46627,-1.61582 -0.56501,-1.99111 1.32635,-0.55231 1.77303,-4.39244 0.5,-4.29852 -0.4125,0.0304 -1.875,1.47595 -3.25,3.21227 -1.375,1.73631 -1.9375,2.80986 -1.25,2.38565 0.68829,-0.42469 1.25,-0.3112 1.25,0.25255 0,0.56311 -0.88987,1.50008 -1.97749,2.08216 -1.66258,0.88978 -1.87439,0.78963 -1.33007,-0.62887 0.43711,-1.13908 0.26737,-1.45229 -0.5225,-0.96412 -0.64347,0.39769 -1.16994,0.29465 -1.16994,-0.22896 0,-0.52362 0.61868,-1.18944 1.37485,-1.47961 1.96707,-0.75484 2.54492,-6.35594 0.89826,-8.70687 C 189.4449,363.7971 189.3121,363 189.9433,363 c 0.58118,0 0.17406,-0.88264 -0.90473,-1.96143 -1.66556,-1.66556 -1.79896,-2.42746 -0.88438,-5.05104 1.11442,-3.19684 0.352,-5.42459 -1.0694,-3.12472 -0.97054,1.57036 -1.80136,0.0897 -3.5703,-6.36281 -0.45234,-1.65 -1.31565,-3.3375 -1.91846,-3.75 -0.75311,-0.51534 -0.63121,-1.04869 0.3896,-1.70464 1.88944,-1.21413 3.39669,1.17469 2.50797,3.97482 -0.44155,1.3912 -0.16804,1.97982 0.91996,1.97982 1.53878,0 3.06248,-3.90145 2.83147,-7.25 -0.0664,-0.9625 0.3013,-1.75 0.81712,-1.75 0.51582,0 0.93096,-0.7875 0.92254,-1.75 -0.0132,-1.50679 -0.15964,-1.54153 -1.05376,-0.25 -0.85652,1.23722 -0.98283,1.14962 -0.72099,-0.5 0.1746,-1.1 0.83629,-2 1.47042,-2 0.63414,0 1.45889,-0.30592 1.8328,-0.67982 0.83594,-0.83594 9.48684,7.66298 9.48684,9.32017 0,0.65614 0.27857,0.91441 0.61905,0.57394 0.74834,-0.74834 2.15856,0.6424 5.35974,5.28571 1.32713,1.925 3.3623,4.40991 4.52261,5.52202 1.16031,1.11211 2.40804,2.79961 2.77274,3.75 0.3647,0.95039 1.39753,1.72798 2.29517,1.72798 1.31549,0 1.56405,0.85439 1.28138,4.40455 -0.19288,2.4225 -0.0132,4.19595 0.39931,3.94098 0.4125,-0.25496 0.77852,-2.12451 0.81339,-4.15455 0.0553,-3.21846 0.17916,-3.40293 0.96777,-1.44098 0.49742,1.2375 1.75363,2.25 2.79158,2.25 2.34447,0 7.17191,5.66654 7.19257,8.44278 0.01,1.32615 0.28578,1.63177 0.7764,0.86001 0.90113,-1.41754 2.44188,-0.57401 4.01334,2.19721 1.10281,1.94476 1.13497,1.93786 1.16454,-0.25 0.0167,-1.2375 0.52855,-2.25 1.1374,-2.25 0.60884,0 0.84797,0.675 0.53138,1.5 -0.38461,1.0023 0.0421,1.5 1.28603,1.5 1.02389,0 2.16691,0.7875 2.54003,1.75 0.63512,1.63834 0.76755,1.62889 2.07547,-0.14802 1.34112,-1.82203 1.43643,-1.79444 2.38071,0.6892 0.54101,1.42297 1.9052,3.08041 3.03152,3.6832 1.69986,0.90974 2.07024,0.79262 2.17951,-0.6892 C 251.20404,380.30333 251.59481,381.075 252,383 l 0.73672,3.5 0.17078,-3.5 0.17078,-3.5 1.45714,3.35597 c 0.99976,2.30256 1.26311,5.00692 0.83897,8.61565 -0.33999,2.89282 -0.21946,5.5061 0.26786,5.80728 0.48732,0.30118 0.94354,-0.85966 1.01383,-2.57963 0.0703,-1.71998 0.56803,-3.27397 1.10609,-3.45333 0.6357,-0.2119 0.63954,-1.91435 0.0109,-4.86161 C 256.73938,381.53746 257.46994,375 259.04531,375 c 0.52508,0 1.02671,1.6875 1.11473,3.75 0.15347,3.59615 0.17638,3.61939 0.55839,0.56655 0.29722,-2.37523 0.87551,-3.14751 2.27776,-3.04188 1.03367,0.0779 2.08264,0.91879 2.33106,1.86874 0.31133,1.19051 1.10002,1.55762 2.53832,1.18149 1.73395,-0.45344 1.90729,-0.8808 1.02551,-2.52842 -0.58363,-1.09052 -0.78828,-3.06993 -0.45478,-4.3987 0.57139,-2.27661 0.7399,-2.32844 2.92194,-0.89871 2.29583,1.50429 2.31484,1.48177 2.22867,-2.63961 -0.0478,-2.28625 0.41427,-4.33198 1.02681,-4.54605 0.71328,-0.24928 1.0128,0.88286 0.83301,3.14868 -0.15439,1.94585 0.13193,3.53791 0.63628,3.53791 0.50434,0 0.91699,-0.76101 0.91699,-1.69113 0,-1.48487 0.17009,-1.45852 1.39459,0.21609 0.76703,1.04897 1.21697,2.88681 0.99986,4.08409 -0.23566,1.29955 0.20984,2.40886 1.1054,2.75252 1.94488,0.74632 1.96923,-1.99466 0.0584,-6.56804 -1.39352,-3.33515 -1.3684,-3.44438 0.75,-3.26143 2.20494,0.19042 4.8987,-1.8781 5.96139,-4.57771 0.31488,-0.79991 0.66932,0.12061 0.78764,2.04561 0.16738,2.72305 0.31605,2.96455 0.66975,1.08789 0.35177,-1.86647 0.65681,-2.09268 1.3485,-1 0.67971,1.07375 0.89756,0.87298 0.90921,-0.83789 0.0159,-2.3374 1.5635,-3.10544 2.22978,-1.1066 C 293.74958,363.74875 298,361.40093 298,359.5 c 0,-0.7863 1.0125,-1.96116 2.25,-2.6108 1.2375,-0.64964 2.60986,-1.79048 3.04969,-2.53518 0.43983,-0.74471 1.39985,-1.35402 2.13337,-1.35402 0.73352,0 1.58087,-0.94528 1.883,-2.10062 0.30248,-1.15668 1.02893,-1.8042 1.61663,-1.44098 C 309.51971,349.8212 310,349.61492 310,349 c 0,-0.61492 0.45,-0.83992 1,-0.5 0.55,0.33992 1,0.11492 1,-0.5 0,-0.61492 0.52647,-0.79266 1.16994,-0.39497 0.78205,0.48333 0.9623,0.18197 0.54367,-0.90896 -0.34444,-0.89761 -0.21557,-1.88584 0.28639,-2.19607 0.50196,-0.31023 0.6572,-1.22974 0.34499,-2.04337 -0.40648,-1.05926 -0.0985,-1.29928 1.08456,-0.84529 0.90873,0.34871 1.56117,0.24132 1.44986,-0.23866 -0.19917,-0.85886 1.25855,-4.43161 3.00813,-7.37268 0.49078,-0.825 1.72935,-3.29314 2.75239,-5.48474 2.07682,-4.44909 3.85122,-6.69078 4.65769,-5.88431 0.88651,0.88651 4.77981,-3.57203 6.30345,-7.2186 0.78417,-1.87679 1.87701,-3.41235 2.42853,-3.41235 0.55152,0 1.78298,-1.6875 2.73658,-3.75 0.9536,-2.0625 2.23317,-4.2 2.84348,-4.75 1.5186,-1.36852 3.76267,-10.08854 2.93917,-11.421 -0.36678,-0.59345 -0.33395,-1.61766 0.0729,-2.27602 0.40689,-0.65836 0.62562,-3.34822 0.48607,-5.97747 -0.13955,-2.62924 0.0924,-5.34054 0.51552,-6.02511 0.42308,-0.68456 0.64132,-3.01644 0.48496,-5.18194 -0.24625,-3.41062 -0.0934,-3.74636 1.14299,-2.51001 0.78499,0.785 1.729,2.09423 2.09779,2.90941 0.36879,0.81518 0.37817,-0.0929 0.0208,-2.01786 -1.32919,-7.16071 -0.18785,-41.62325 1.83806,-55.5 0.70304,-4.81551 -1.42897,-20.94109 -2.91206,-22.02554 -1.00178,-0.73252 -1.5483,-2.88256 -1.59975,-6.29355 -0.0503,-3.33277 -0.3977,-4.73501 -0.97393,-3.93091 -0.59916,0.8361 -0.73663,0.52086 -0.41517,-0.95205 0.26432,-1.21113 0.0677,-2.33967 -0.43683,-2.50786 -0.50458,-0.16819 -1.20205,-2.05973 -1.54992,-4.20342 -0.48043,-2.96057 -0.3347,-3.71357 0.60617,-3.13208 0.81856,0.50589 0.71162,-0.25366 -0.31528,-2.23948 -1.66684,-3.22331 -3.50294,-9.84472 -4.08046,-14.71511 -0.39986,-3.3721 -5.99398,-17.75111 -8.23909,-21.17758 -0.80525,-1.22896 -1.13076,-2.77379 -0.72338,-3.43295 0.44043,-0.71263 0.31778,-0.9371 -0.30254,-0.55372 -1.04202,0.644 -4.66276,-3.61174 -7.09199,-8.33575 -2.79337,-5.43214 -3.46992,-5.86016 -7.9639,-5.03838 -2.31535,0.42341 -4.20979,0.45701 -4.20979,0.0747 0,-0.38233 -2.2846,-0.74718 -5.07689,-0.81079 -2.79229,-0.0636 -7.54475,-0.62797 -10.56103,-1.25414 -3.01628,-0.62618 -6.10261,-0.90118 -6.85851,-0.61111 -0.75589,0.29006 -1.55342,-0.01 -1.77227,-0.66644 -0.3615,-1.08455 -5.30009,-1.46784 -22.7313,-1.76421 -7.78408,-0.13235 -14.71244,0.8095 -18.5,2.51491 -2.87693,1.29538 -6.90364,1.86187 -14.34178,2.01766 l -10.34177,0.21661 -4.15823,-3.92821 C 214.3712,110.59007 213.175,109.10411 214,109.44846 c 0.825,0.34435 0.66503,0.0468 -0.35548,-0.66119 -6.39646,-4.43766 -8.71492,-6.66828 -6.77931,-6.52247 1.09793,0.0827 1.73026,0.61946 1.40519,1.19279 -0.32508,0.57332 -0.22281,0.70881 0.22727,0.30109 0.45007,-0.40773 1.42222,-0.24013 2.16032,0.37244 0.73811,0.61257 1.34201,0.70411 1.34201,0.20342 0,-0.5007 -2.90904,-2.82294 -6.46452,-5.160536 C 199.58431,95.261335 196.998,93 198.47423,93 c 1.47891,0 10.65514,5.215684 14.96755,8.50742 2.62141,2.00097 4.49431,3.19818 4.16198,2.66047 -1.64491,-2.66153 -17.1797,-13.804432 -22.28892,-15.987556 -7.29826,-3.118484 -20.98151,-4.344016 -20.98151,-1.879195 0,0.985027 1.28957,1.758877 3.58334,2.150307 5.39944,0.921413 11.39905,3.735391 9.91701,4.651345 -0.68172,0.421326 -2.40558,0.53283 -3.83079,0.247786 -2.48521,-0.497041 -17.80688,3.382054 -21.65194,5.481774 -1.89617,1.035465 -6.78077,5.788869 -10.34862,10.070659 C 150.90105,110.22467 150,110.8 150,110.18152 c 0,-3.40422 9.79908,-21.03577 12.24505,-22.032609 1.45666,-0.593648 5.71399,-5.523205 5.20747,-6.029721 -0.26241,-0.262417 -1.93408,0.545882 -3.71482,1.796218 -1.78073,1.250337 -0.3127,-0.45167 3.2623,-3.782238 3.575,-3.330568 7.29649,-6.331215 8.26998,-6.668104 2.0308,-0.702785 9.18315,1.505559 18.37557,5.6736 7.15204,3.24289 8.39974,4.494236 2.35445,2.361334 -4.76898,-1.682595 -5.20758,-1.175825 -0.90707,1.048056 3.89088,2.012051 3.26567,2.965646 -0.6806,1.038084 -1.60178,-0.782394 -6.06233,-1.682354 -9.91233,-1.999913 -3.85,-0.317559 -6.55,-0.360225 -6,-0.09481 1.67596,0.808762 15.80229,3.656175 19.04039,3.837929 1.67221,0.09386 4.14721,0.878168 5.5,1.742905 4.58112,2.92837 5.47001,3.098664 2.65385,0.508426 C 204.15107,86.161304 203.33701,85 203.88522,85 c 0.54821,0 1.29382,0.480678 1.65691,1.068174 0.3631,0.587495 1.28426,0.82869 2.04702,0.535988 0.76277,-0.292702 1.27976,0.01412 1.14885,0.681826 -0.14903,0.760198 0.7619,1.110813 2.43687,0.93794 1.47118,-0.151839 2.96024,0.185661 3.30902,0.75 0.34878,0.56434 1.17009,1.012028 1.82513,0.994862 0.65504,-0.01716 -0.60902,-1.176275 -2.80902,-2.575801 -2.82054,-1.794278 -3.26283,-2.336973 -1.5,-1.84048 3.25152,0.915775 9.75584,4.184247 13.30758,6.687167 1.54416,1.088179 3.04064,1.74544 3.3255,1.46058 0.28486,-0.28486 -2.55355,-2.200637 -6.30758,-4.257283 -3.75402,-2.056646 -9.0755,-4.969162 -11.8255,-6.472259 -2.75,-1.503097 -6.71765,-3.28126 -8.817,-3.951473 -2.09935,-0.670214 -3.58614,-1.449432 -3.30398,-1.731595 1.13721,-1.137213 22.21195,4.898115 28.55185,8.176603 C 228.61889,86.33716 230,86.822385 230,86.542526 230,85.727567 220.21929,81 218.53324,81 217.68996,81 217,80.621608 217,80.15913 c 0,-0.462479 -2.48081,-1.396051 -5.51291,-2.074605 -3.03429,-0.679044 -5.24463,-1.667816 -4.91621,-2.199212 0.35713,-0.577852 -0.54103,-0.74624 -2.23709,-0.419413 -1.55859,0.300335 -2.27129,0.280872 -1.58379,-0.04325 2.05355,-0.96815 1.41337,-2.609275 -0.75,-1.922649 -1.14731,0.364142 -2,0.1797 -2,-0.432612 0,-0.587064 -1.6875,-1.116693 -3.75,-1.176954 L 192.5,71.78087 197,70.831478 c 8.34783,-1.761191 18.66736,-0.425664 27,3.494267 4.125,1.940528 8.92575,4.482013 10.66834,5.647743 2.64928,1.772275 3.12955,1.855197 2.93155,0.506154 -0.3216,-2.191218 -7.45923,-6.185976 -16.98768,-9.507598 l -7.8878,-2.749687 4.20943,-0.711178 c 2.31518,-0.391148 5.86469,-0.718643 7.88779,-0.727766 3.12729,-0.0141 3.34129,-0.14411 1.42837,-0.867776 -1.2375,-0.468153 -2.25,-1.023483 -2.25,-1.234067 0,-0.629496 10.08613,1.161794 11.38969,2.0228 0.66251,0.437597 0.28336,-0.05179 -0.84256,-1.087525 L 232.5,63.733689 235,64.466886 c 3.54418,1.039434 9.78628,5.243264 14.75,9.933603 2.3375,2.20876 4.25,3.557758 4.25,2.997775 0,-0.559984 -3.62923,-4.028678 -8.06495,-7.708208 -7.70813,-6.394058 -8.14742,-7.656752 -2.10052,-6.037664 1.50686,0.403468 1.91743,0.882871 1.15805,1.352191 -0.73181,0.452288 -0.20826,0.912196 1.38521,1.216806 1.59936,0.305737 2.3236,0.104463 1.9279,-0.535785 -0.40704,-0.658608 0.051,-0.742803 1.28027,-0.23534 C 253.37973,67.01638 260,68.893629 260,68.403277 c 0,-0.275584 -1.9125,-1.369177 -4.25,-2.430207 -5.16538,-2.34465 -3.39635,-2.615614 2.27125,-0.34789 2.23395,0.893848 4.2968,1.390103 4.58412,1.102788 0.97386,-0.973861 -12.09033,-4.701564 -14.35537,-4.096125 -1.30744,0.349477 -2.25,0.15263 -2.25,-0.469899 0,-0.589225 -1.61951,-1.37514 -3.59892,-1.746479 -1.9794,-0.371339 -3.10061,-0.983129 -2.49158,-1.359534 0.60904,-0.376404 -2.08159,-1.125131 -5.97917,-1.663838 -6.17728,-0.853796 -6.85196,-0.798234 -5.25842,0.433049 1.61789,1.250097 1.19568,1.342358 -3.67191,0.802378 -3.025,-0.335575 -6.24537,-0.614047 -7.15638,-0.618828 -2.59598,-0.01362 -1.09046,-3.676184 2.0016,-4.869427 1.46013,-0.563472 5.72992,-2.221257 9.48842,-3.683966 5.93365,-2.309221 7.84329,-2.592387 14.5,-2.150091 10.36244,0.68852 23.48074,3.059704 30.18758,5.456529 3.03667,1.085215 12.61588,5.619717 21.28713,10.076672 8.67125,4.456955 17.50935,8.625906 19.64024,9.264334 2.13089,0.638429 4.92668,2.252658 6.21287,3.587175 1.2862,1.334516 3.61943,3.698259 5.18497,5.252761 2.01854,2.00431 2.45482,2.95971 1.5,3.284821 -1.32214,0.450183 1.93106,4.22807 14.90357,17.30724 2.8875,2.91124 5.25,5.74439 5.25,6.29588 0,0.55149 0.3559,1.15271 0.79089,1.33605 1.49852,0.63158 11.13534,12.85145 13.8699,17.5876 1.50705,2.61015 4.20988,6.9119 6.00629,9.55945 1.79641,2.64754 3.55247,6.47254 3.90235,8.5 0.34988,2.02745 1.33663,6.16128 2.19278,9.18628 1.44896,5.11954 1.58328,9.93225 0.8061,28.88221 -0.16734,4.08041 0.0479,4.47733 3.12598,5.76342 1.81814,0.75966 3.30571,1.82517 3.30571,2.36779 0,0.9066 -4.11346,1.49436 -8.18127,1.16899 -1.66926,-0.13352 -6.81873,5.09674 -6.81873,6.9257 0,2.07868 3.16965,2.0947 4.62048,0.0233 1.9108,-2.72806 2.99796,-2.69854 3.73014,0.10129 0.46274,1.76955 0.83962,1.97701 1.81663,1 0.67801,-0.67801 1.70525,-1.21778 2.28275,-1.19948 0.5775,0.0183 -0.075,0.97161 -1.45,2.11846 -2.26996,1.89333 -2.48651,2.74141 -2.35344,9.21674 l 0.14655,7.13153 -2.55744,-6.5 c -1.40659,-3.575 -2.70714,-6.6846 -2.89011,-6.91022 -0.18297,-0.22562 -2.04507,0.10283 -4.138,0.72989 l -3.80534,1.1401 -0.20407,6.77012 c -0.11224,3.72356 0.18927,7.37783 0.67001,8.1206 1.11484,1.72247 -0.50557,9.31186 -2.27683,10.6638 -1.95027,1.48857 -2.90667,6.72733 -3.28352,17.98571 -0.1841,5.5 -0.4602,13.15 -0.61356,17 -0.15336,3.85 0.0767,8.98004 0.5113,11.40009 0.43457,2.42005 0.98972,6.8155 1.23366,9.76766 0.24395,2.95217 0.63524,7.27213 0.86954,9.59991 0.2343,2.32779 0.22938,3.44484 -0.0109,2.48234 -0.24031,-0.9625 -0.88218,-1.75 -1.42639,-1.75 -0.5442,0 -0.72916,0.42118 -0.41102,0.93595 0.31815,0.51477 0.14475,2.86619 -0.38532,5.22538 -0.66706,2.96885 -0.6314,4.49485 0.11583,4.95666 0.76922,0.47541 0.75322,1.60349 -0.0557,3.92385 -1.36741,3.92254 -1.38918,4.23312 -0.24726,3.52738 2.04444,-1.26354 1.64287,5.42887 -0.57452,9.57452 -1.27241,2.37893 -2.31348,5.82134 -2.31348,7.64981 0,1.96168 -0.40993,3.07113 -1,2.70645 -0.55,-0.33992 -1.03655,0.19602 -1.08122,1.19098 -0.0564,1.25705 -0.47002,0.92857 -1.35549,-1.07657 -1.24343,-2.81576 -1.2916,-2.73245 -1.99016,3.44194 -0.46297,4.09219 -1.30889,6.77841 -2.3945,7.60379 -1.12924,0.85856 -1.25465,1.28666 -0.38318,1.30806 0.74892,0.0184 0.22156,1.1057 -1.25,2.57725 -1.4,1.4 -2.54545,3.39286 -2.54545,4.42858 0,1.03571 -0.7242,2.60731 -1.60933,3.49244 -0.95091,0.95092 -1.4195,2.60237 -1.14534,4.03655 0.25519,1.33496 0.0421,2.56782 -0.47345,2.73969 -0.5156,0.17186 -1.26305,3.07395 -1.66101,6.44909 -0.39796,3.37513 -1.24188,6.76113 -1.87537,7.52444 -0.63349,0.76331 -0.91393,2.29746 -0.62319,3.40922 0.29365,1.12293 -0.40751,3.60799 -1.57751,5.59099 -1.15837,1.96328 -2.03678,3.95524 -1.95204,4.42657 0.38525,2.14272 -0.18769,3.48867 -1.32383,3.10996 -1.57381,-0.52461 -3.2814,1.16708 -4.24609,4.20655 -0.65533,2.06477 -0.86959,2.15439 -1.68162,0.70336 -1.30865,-2.33843 -3.09827,-2.07965 -2.33122,0.33711 0.34913,1.1 0.19195,2 -0.34928,2 -0.54123,0 -1.16061,-0.52967 -1.3764,-1.17705 C 319.1451,400.9353 317,402.903 317,405.36789 c 0,3.69178 -5.00412,8.05249 -6.48709,5.653 -0.30312,-0.49046 -1.70829,0.2654 -3.1226,1.67971 -1.86801,1.868 -2.4099,3.21815 -1.98088,4.93543 0.32481,1.30018 0.82419,3.60147 1.10972,5.11397 0.49803,2.63811 0.47147,2.65845 -0.65281,0.5 -0.64458,-1.2375 -1.5532,-2.25 -2.01915,-2.25 -1.41145,0 -4.84719,3.89846 -4.84719,5.5 0,0.825 -0.45,1.5 -1,1.5 -0.55,0 -1,-0.93214 -1,-2.07143 0,-1.902 -0.13135,-1.94008 -1.60595,-0.46548 -1.17088,1.17089 -1.9549,1.31634 -2.89405,0.53691 -1.33653,-1.10922 -3.78991,0.54419 -4.79596,3.23214 -0.34318,0.9169 -0.85767,0.77104 -1.85861,-0.52691 -0.76124,-0.98713 -2.38788,-1.87039 -3.61475,-1.96281 -1.2508,-0.0942 -2.24465,-0.84328 -2.26248,-1.70522 -0.0244,-1.17815 -0.36678,-1.07005 -1.4659,0.4628 -3.16852,4.41886 -3.69601,4.80001 -4.63294,3.34764 -0.61539,-0.95394 -1.08846,-1.02282 -1.61936,-0.23579 -0.4125,0.61152 -2.2125,1.32108 -4,1.57681 -2.54827,0.36456 -3.25,0.1065 -3.25,-1.19519 z M 257.92971,410.25 c -0.0614,-2.40075 -0.17246,-2.496 -0.87486,-0.75 -0.44252,1.1 -0.60934,2.3375 -0.3707,2.75 0.84706,1.46421 1.3149,0.713 1.24556,-2 z M 257,403.55902 c 0,-0.24254 -0.45,-0.7191 -1,-1.05902 -0.55,-0.33992 -1,-0.14148 -1,0.44098 0,0.58246 0.45,1.05902 1,1.05902 0.55,0 1,-0.19844 1,-0.44098 z m 23.15523,-7.72851 c -0.2187,-2.29322 0.13434,-6.54656 0.78452,-9.45187 0.88928,-3.97374 0.89923,-5.81099 0.0402,-7.41615 -0.62808,-1.17358 -1.37556,-1.90018 -1.66108,-1.61467 -0.28551,0.28552 -0.15313,1.11129 0.29418,1.83505 1.19551,1.93437 0.43744,7.05757 -1.33829,9.04451 -1.07469,1.20252 -1.36567,2.82482 -0.95763,5.33923 0.46575,2.87012 2.17266,6.43339 3.08177,6.43339 0.0847,0 -0.0249,-1.87627 -0.24364,-4.16949 z M 278.232,392 c 0,-1.925 0.2058,-2.7125 0.45733,-1.75 0.25152,0.9625 0.25152,2.5375 0,3.5 -0.25153,0.9625 -0.45733,0.175 -0.45733,-1.75 z m -11.24731,4.25 c -0.0111,-2.00139 -0.25818,-2.36635 -0.90748,-1.34068 -0.49069,0.77512 -0.66066,2.01262 -0.3777,2.75 0.81146,2.11462 1.30181,1.57691 1.28518,-1.40932 z m 3.36039,-1.79313 c -0.32569,-0.84872 -0.80663,-1.32866 -1.06875,-1.06653 -0.26213,0.26213 -0.17998,0.95654 0.18255,1.54313 0.98605,1.59546 1.56238,1.28551 0.8862,-0.4766 z m -2.99574,-3.9889 C 266.55611,388.40086 266,388.64445 266,391.05902 c 0,1.13246 0.43035,1.79305 0.95633,1.46797 0.52598,-0.32507 0.70283,-1.25163 0.39301,-2.05902 z m -27.88272,-4.65059 c -0.64097,-3.78083 -0.83632,-4.03613 -1.57189,-2.05432 -0.51333,1.38307 -0.39858,3.23177 0.2951,4.75423 1.59784,3.50687 2.13609,2.36869 1.27679,-2.69991 z m 9.70183,1.95107 c -0.74207,-0.74207 -0.87221,-0.35164 -0.43724,1.31171 0.35361,1.3522 0.8069,1.8055 1.05655,1.05655 0.24048,-0.72144 -0.0382,-1.78716 -0.61931,-2.36826 z m 2.64767,-0.27268 c -0.62755,-1.37732 -1.32936,-2.31586 -1.55958,-2.08564 -0.46705,0.46705 1.56047,4.58987 2.2572,4.58987 0.24386,0 -0.0701,-1.1269 -0.69762,-2.50423 z M 233.98469,379.25 c 0.008,-0.6875 -0.70783,-1.25 -1.59168,-1.25 -1.05452,0 -1.39831,0.5438 -1,1.58179 0.33385,0.86998 0.61388,2.10748 0.6223,2.75 0.0204,1.55842 1.94951,-1.46032 1.96938,-3.08179 z m 32.62034,2.58006 c 0.48618,-0.78665 0.1779,-0.96074 -0.94099,-0.53138 -0.94986,0.36449 -1.66404,0.15131 -1.66404,-0.49673 0,-0.62441 -0.27006,-0.86522 -0.60014,-0.53515 C 262.65028,381.01639 263.81158,383 265,383 c 0.48508,0 1.20734,-0.52647 1.60503,-1.16994 z m -49.18848,-4.47319 c 0.95273,-2.48276 -0.0974,-2.82177 -1.37071,-0.44252 -0.6143,1.14784 -0.69884,2.08565 -0.18801,2.08565 0.5105,0 1.21193,-0.73941 1.55872,-1.64313 z m 59.10337,-2.3365 C 276.29242,371.93231 275,371.34811 275,374.33333 275,375.8 275.3748,377 275.83288,377 c 0.45809,0 0.76725,-0.89083 0.68704,-1.97963 z M 193.5,361 c 0.33992,-0.55 0.14148,-1 -0.44098,-1 -0.58246,0 -1.05902,0.45 -1.05902,1 0,0.55 0.19844,1 0.44098,1 0.24254,0 0.7191,-0.45 1.05902,-1 z m 162.46937,-38.5 c 0,-0.55 -0.43621,-0.325 -0.96937,0.5 -0.53316,0.825 -0.96937,1.95 -0.96937,2.5 0,0.55 0.43621,0.325 0.96937,-0.5 0.53316,-0.825 0.96937,-1.95 0.96937,-2.5 z M 365.9697,135.28801 c -1.72413,-3.1416 -4.33514,-7.14525 -5.80224,-8.897 -1.4671,-1.75176 -3.76444,-5.02188 -5.10518,-7.26695 -1.34075,-2.24507 -2.61421,-3.90547 -2.82991,-3.68977 -0.21569,0.2157 0.39122,1.5878 1.34871,3.04911 0.95749,1.46132 2.45595,3.92772 3.32991,5.48091 2.17807,3.87084 11.28759,17.03569 11.78797,17.03569 0.22304,0 -1.00513,-2.5704 -2.72926,-5.71199 z M 217.90564,97.75 c -0.23524,-0.1375 -2.22274,-1.824407 -4.41667,-3.748681 L 209.5,90.502637 l 3.93502,4.230325 c 2.16427,2.326679 4.15177,4.013585 4.41667,3.748682 0.2649,-0.264904 0.28918,-0.594144 0.054,-0.731644 z m 78.22137,-3.5 c -0.51885,-0.9625 -2.19737,-2.875 -3.73003,-4.25 -2.57312,-2.308415 -2.5354,-2.174305 0.4922,1.75 3.39437,4.399696 4.88041,5.547101 3.23783,2.5 z M 215,91.606989 c 0,-0.216156 -0.69837,-0.661002 -1.55194,-0.988546 -0.88992,-0.341496 -1.29132,-0.173849 -0.94098,0.393011 C 213.09434,91.961658 215,92.416902 215,91.606989 Z m 60.09228,-6.260084 c -2.6976,-5.06899 -3.83103,-6.369935 -8.59228,-9.862139 -3.97576,-2.91608 -3.96936,-2.900685 1.05593,2.540688 2.78076,3.011 5.9071,6.923201 6.94743,8.693779 2.61974,4.45865 3.09843,3.343204 0.58892,-1.372328 z M 285,86.702948 c 0,-0.163379 -1.8,-2.054705 -4,-4.202948 -2.2,-2.148243 -4,-3.617909 -4,-3.265926 0,0.351983 1.6875,2.239406 3.75,4.194274 3.61471,3.426075 4.25,3.915562 4.25,3.2746 z M 312,76.5 c -0.68469,-0.825 -1.69489,-1.5 -2.24489,-1.5 -0.55783,0 -0.44954,0.66326 0.24489,1.5 0.68469,0.825 1.69489,1.5 2.24489,1.5 0.55783,0 0.44954,-0.66326 -0.24489,-1.5 z M 207.72917,71.395833 c -0.3323,-0.332291 -1.1948,-0.367818 -1.91667,-0.07895 -0.79773,0.319226 -0.56078,0.556183 0.60417,0.604167 1.05416,0.04342 1.64479,-0.192928 1.3125,-0.52522 z M 259,70.5846 c -1.375,-0.734429 -3.625,-1.615407 -5,-1.957728 -1.375,-0.342321 -0.7,0.243219 1.5,1.301199 4.52542,2.176276 7.33032,2.702419 3.5,0.656529 z m -22.43571,344.70853 c -0.54268,-1.4252 -0.42782,-1.54006 0.5598,-0.5598 0.68342,0.67834 0.99067,1.48524 0.68278,1.79313 -0.30789,0.30789 -0.86705,-0.24711 -1.24258,-1.23333 z M 381.5,399.531 c -1.65,-1.35249 -2.51594,-2.47526 -1.92431,-2.49504 0.59162,-0.0198 2.13256,1.08904 3.42431,2.46404 2.98456,3.17692 2.35384,3.18995 -1.5,0.031 z M 202.07895,385.41667 c 0.048,-1.16495 0.28494,-1.4019 0.60416,-0.60417 0.28887,0.72187 0.25335,1.58438 -0.0789,1.91667 -0.3323,0.33229 -0.56864,-0.25834 -0.52522,-1.3125 z m 62.42265,-17.46331 c 1.49666,-4.7969 2.45765,-6.95336 3.09865,-6.95336 1.19183,0 -0.54985,6.09246 -2.21879,7.7614 -1.5271,1.5271 -1.59032,1.46903 -0.87986,-0.80804 z M 270,363 c 0,-1.1 0.45,-2 1,-2 0.55,0 1,0.9 1,2 0,1.1 -0.45,2 -1,2 -0.55,0 -1,-0.9 -1,-2 z m -1.88889,-6.11111 c -0.61607,-1.76726 -0.95367,-3.37966 -0.75022,-3.58311 0.20345,-0.20345 0.94105,1.00895 1.63911,2.69422 0.69806,1.68527 1.03566,3.29767 0.75022,3.58311 -0.28544,0.28544 -1.02304,-0.92696 -1.63911,-2.69422 z M 257,350.56343 c 0,-2.17123 -0.40553,-3.43083 -0.98855,-3.07051 -0.57081,0.35278 -0.73212,-0.0573 -0.38173,-0.97037 0.55231,-1.43929 0.71138,-1.43833 1.77095,0.0107 0.93939,1.28469 1.08933,0.80772 0.7767,-2.47061 -0.24156,-2.53296 0.0286,-4.06266 0.71759,-4.06266 1.76459,0 1.41527,11.49764 -0.39496,13 -1.28714,1.06823 -1.5,0.72246 -1.5,-2.43657 z m 9.91368,0.18657 c -0.57176,-8.27926 -0.52233,-10.62617 0.21421,-10.17096 0.47966,0.29645 0.87211,1.35175 0.87211,2.34512 0,0.99337 0.90792,2.96036 2.0176,4.37109 1.10968,1.41073 1.60683,2.81883 1.10479,3.12911 -0.50205,0.31028 -1.17085,-0.10826 -1.48622,-0.9301 -0.85931,-2.23932 -2.5291,-1.80083 -1.92592,0.50574 0.28766,1.1 0.24553,2 -0.0936,2 -0.33915,0 -0.65548,-0.5625 -0.70295,-1.25 z M 352.15789,348 c 0,-1.375 0.22698,-1.9375 0.50439,-1.25 0.27741,0.6875 0.27741,1.8125 0,2.5 -0.27741,0.6875 -0.50439,0.125 -0.50439,-1.25 z m -88.95769,0.12373 C 262.02477,347.39727 260.18623,340 261.1811,340 c 0.24353,0 1.44594,1.35684 2.67202,3.01521 2.30579,3.11875 1.85349,6.65757 -0.65292,5.10852 z m -9.12125,-3.70706 c 0.048,-1.16495 0.28494,-1.4019 0.60416,-0.60417 0.28887,0.72187 0.25335,1.58438 -0.0789,1.91667 -0.3323,0.33229 -0.56864,-0.25834 -0.52522,-1.3125 z m -73.61217,-5.47041 c -0.47099,-0.76209 -0.38113,-1.47481 0.21083,-1.67213 0.56744,-0.18915 0.81608,-1.47188 0.55254,-2.85052 -0.26355,-1.37864 -0.0856,-2.4165 0.39534,-2.30636 1.39636,0.31977 4.37451,-1.24036 4.37451,-2.29163 0,-0.52822 -0.9,-0.67475 -2,-0.32562 -1.72132,0.54632 -2.00545,0.17253 -2.03914,-2.68261 l -0.0391,-3.31739 -1.41259,3.25 c -2.25538,5.18907 -4.83968,3.81512 -5.0759,-2.69864 -0.0688,-1.89675 -0.64441,-3.62175 -1.27915,-3.83333 C 173.51934,320.00645 173,318.94428 173,317.85765 c 0,-1.08663 -0.40285,-1.72671 -0.89522,-1.42241 -0.49236,0.3043 -1.16736,-0.15595 -1.5,-1.02277 -0.90258,-2.35209 -0.732,-3.60913 0.39522,-2.91247 1.26777,0.78352 1.27411,-0.11929 0.0173,-2.46759 -0.82527,-1.54202 -0.6651,-1.75306 1,-1.31762 1.65763,0.43348 1.98265,0.0172 1.98265,-2.53914 0,-1.68169 0.50292,-3.36844 1.11759,-3.74833 0.7732,-0.47786 1.00076,0.53444 0.73845,3.28501 -0.32969,3.45719 -0.13959,3.91308 1.45754,3.49542 1.1766,-0.30769 1.7671,0.0179 1.64307,0.90597 -0.10649,0.76245 -0.13341,2.73628 -0.0598,4.38628 0.10098,2.26421 0.36197,2.63921 1.06411,1.52896 1.16633,-1.84424 1.64449,-1.36137 2.69918,2.72572 0.46193,1.79008 1.28988,3.3448 1.83988,3.45493 1.88951,0.37837 3.63957,5.2329 3.03952,8.4314 -0.54897,2.92627 -3.43741,6.70076 -3.62074,4.73143 -0.0447,-0.47984 -0.65494,0.42682 -1.35616,2.0148 -0.93545,2.1184 -1.49354,2.53355 -2.09584,1.55902 z m 8.9921,-8.01279 c -0.36253,-0.58659 -0.44468,-1.281 -0.18255,-1.54313 0.26212,-0.26213 0.74306,0.21781 1.06875,1.06653 0.67618,1.76211 0.0999,2.07206 -0.8862,0.4766 z M 208.6,321.4 c -0.35589,-0.92744 -0.42208,-1.91126 -0.14708,-2.18626 0.275,-0.275 0.79119,0.25882 1.14708,1.18626 0.35589,0.92744 0.42208,1.91126 0.14708,2.18626 -0.275,0.275 -0.79119,-0.25882 -1.14708,-1.18626 z m 2.47895,0.0167 c 0.048,-1.16495 0.28494,-1.4019 0.60416,-0.60417 0.28887,0.72187 0.25335,1.58438 -0.0789,1.91667 -0.3323,0.33229 -0.56864,-0.25834 -0.52522,-1.3125 z m 24.75196,-0.32401 C 232.16292,320.7667 228.94015,320.275 228.66922,320 c -0.27094,-0.275 -0.2499,-1.7636 0.0468,-3.308 0.35475,-1.84688 1.00908,-2.62775 1.91169,-2.28138 0.75479,0.28963 1.37234,-0.0593 1.37234,-0.77534 0,-0.71607 0.6775,-1.30195 1.50556,-1.30195 0.82806,0 1.41484,0.4875 1.30395,1.08334 -0.32188,1.72959 1.23655,5.58333 2.25788,5.58333 0.51293,0 0.93261,-0.9 0.93261,-2 0,-1.1 -0.45,-2 -1,-2 -0.55,0 -1,-1.82656 -1,-4.05902 0,-2.45136 -0.39607,-3.81423 -1,-3.44098 -0.5694,0.35191 -1,-0.50929 -1,-2 0,-1.49071 -0.4306,-2.35191 -1,-2 -0.55,0.33992 -1,0.14148 -1,-0.44098 C 232,302.47656 231.55,302 231,302 c -0.55,0 -1,0.48214 -1,1.07143 0,1.44923 -2.76827,4.1367 -3.28205,3.18624 -1.19979,-2.21953 -1.59119,-4.29736 -0.7065,-3.75059 0.5437,0.33602 0.99544,0.0219 1.00386,-0.69806 0.0111,-0.95119 0.2803,-0.89899 0.98469,0.19098 0.85051,1.31606 0.97125,1.30678 0.98469,-0.0757 0.0296,-3.04544 4.24597,-5.80957 8.76669,-5.74718 2.33674,0.0323 4.24862,0.44147 4.24862,0.90937 0,0.4679 0.75312,0.56173 1.67361,0.20851 1.27447,-0.48906 1.51833,-0.23757 1.0225,1.05452 -0.5424,1.41349 -0.33195,1.52594 1.26065,0.67361 2.9147,-1.5599 3.54564,-1.33077 8.14492,2.958 4.40581,4.10835 5.73971,4.54479 4.13979,1.35451 -0.60127,-1.19895 -0.50131,-2.63484 0.28819,-4.1398 1.09298,-2.08345 1.26924,-2.13134 1.84019,-0.5 0.34729,0.99228 0.92933,2.47915 1.29341,3.30415 0.56859,1.28838 0.42742,1.30638 -1.00064,0.12756 -2.15984,-1.78289 -2.04649,-0.48184 0.33738,3.87244 1.9207,3.50829 2.28068,3.08621 2.13217,-2.5 l -0.0797,-3 1.07929,2.8165 c 0.7256,1.89353 1.57276,2.62715 2.58513,2.23866 1.04597,-0.40137 1.32873,-0.11629 0.92589,0.9335 -0.31898,0.83124 -0.17708,1.51134 0.31533,1.51134 0.49241,0 1.08768,0.5625 1.32282,1.25 0.23513,0.6875 0.25009,0.1998 0.0332,-1.08379 -0.24486,-1.44932 0.003,-2.0884 0.65339,-1.68629 0.65227,0.40313 0.59572,-0.41441 -0.14985,-2.16621 -1.79396,-4.21509 -2.80991,-5.01335 -2.88105,-2.26371 -0.0606,2.34446 -0.10013,2.35907 -0.91632,0.3391 -0.46911,-1.16099 -1.56558,-2.38437 -2.43661,-2.71862 -0.87103,-0.33423 -1.58369,-1.2665 -1.58369,-2.0717 0,-0.8052 -0.8795,-1.74314 -1.95445,-2.08431 -1.68294,-0.53415 -1.79779,-0.96413 -0.82676,-3.09531 1.04855,-2.30131 1.58923,-2.46135 7.70445,-2.28052 3.61722,0.10697 7.13926,0.62464 7.82676,1.15037 0.6875,0.52574 1.25,0.64313 1.25,0.26086 0,-0.38226 1.09098,0.16314 2.4244,1.21201 1.94143,1.52713 3.73432,1.84666 9,1.60397 3.61658,-0.16668 6.5756,0.0847 6.5756,0.55856 0,0.47389 0.69837,1.12961 1.55194,1.45716 0.88992,0.34149 1.29132,0.17385 0.94098,-0.39301 C 296.1569,295.44485 296.33302,295 296.8843,295 c 0.55129,0 2.14282,1.9125 3.53674,4.25 2.73094,4.5796 2.84442,4.6274 5.25753,2.21429 2.36915,-2.36915 4.23069,-0.0261 4.97548,6.26248 0.84688,7.15064 -0.0855,10.10956 -3.41928,10.85095 -1.50412,0.33449 -3.52227,0.82167 -4.48477,1.08261 -0.9625,0.26095 -1.75,-0.038 -1.75,-0.66437 0,-0.62635 -0.675,-1.81382 -1.5,-2.63882 -0.825,-0.825 -1.5,-1.22702 -1.5,-0.89338 0,0.33363 -0.85969,0.14651 -1.91043,-0.41582 -1.37087,-0.73367 -3.0818,-0.60914 -6.05797,0.44091 -2.28116,0.80484 -7.60896,1.92509 -11.83958,2.48946 -4.23061,0.56436 -12.41702,1.68586 -18.19202,2.49222 -10.98436,1.53373 -13.25364,1.59215 -24.16909,0.62213 z M 263,317 c 0,-0.55 -0.42344,-1 -0.94098,-1 -0.51754,0 -1.2191,0.45 -1.55902,1 -0.33992,0.55 0.0835,1 0.94098,1 0.85746,0 1.55902,-0.45 1.55902,-1 z m -7.6409,-0.69244 c 0.38084,-0.38084 1.68372,-0.84371 2.89528,-1.02861 1.21157,-0.1849 2.5955,-0.72883 3.0754,-1.20873 1.17596,-1.17596 -0.18793,-7.05056 -1.65924,-7.14673 -0.64379,-0.0421 -1.99927,-0.23332 -3.01217,-0.42497 -1.0129,-0.19165 -1.59123,-0.0981 -1.28519,0.208 0.89088,0.89088 -1.37571,4.40995 -2.42335,3.76247 C 252.42742,310.14613 252,310.30852 252,310.82987 c 0,0.52135 -0.77026,0.88541 -1.71169,0.80902 -2.6163,-0.21229 -2.67521,2.872 -0.0787,4.12258 2.74431,1.32178 4.21759,1.47802 5.14952,0.54609 z m -14.39454,-9.04777 c 0.0243,-0.84979 -0.55515,-0.73454 -1.84058,0.36609 -1.15407,0.98814 -1.67403,2.37872 -1.35114,3.61345 0.50116,1.91645 0.58433,1.89991 1.84058,-0.36609 0.72364,-1.30528 1.33166,-2.93134 1.35114,-3.61345 z M 244.78432,306.5 c -0.0136,-1.66292 -0.0938,-1.70299 -0.476,-0.23776 -0.25283,0.96924 -0.9521,1.45792 -1.55394,1.08596 -0.71121,-0.43955 -0.85974,-0.0652 -0.42432,1.06954 0.36847,0.96021 0.7148,2.49653 0.76962,3.41405 0.13424,2.2466 1.70589,-2.72758 1.68464,-5.33179 z m 29.20037,4.75 c -0.008,-0.4125 -0.45153,-1.425 -0.98469,-2.25 -0.78387,-1.21296 -0.9723,-1.06944 -0.98469,0.75 -0.008,1.2375 0.43469,2.25 0.98469,2.25 0.55,0 0.99311,-0.3375 0.98469,-0.75 z m -0.2917,-7.98097 c -0.25354,-0.97297 -0.47766,-0.41903 -0.49804,1.23097 -0.0204,1.65 0.18706,2.44606 0.46099,1.76903 0.27392,-0.67703 0.29059,-2.02703 0.0371,-3 z m 23.99012,0.54347 c -0.31922,-0.79773 -0.55618,-0.56078 -0.60416,0.60417 -0.0434,1.05416 0.19293,1.64479 0.52522,1.3125 0.33229,-0.33229 0.36781,-1.1948 0.0789,-1.91667 z M 235.76793,300 c -0.68696,-1.1 -1.92828,-1.98503 -2.75848,-1.96673 -1.07099,0.0236 -0.8237,0.60455 0.85133,2 2.99257,2.49306 3.47956,2.48456 1.90715,-0.0333 z m -16.36897,18.45343 c -0.35154,-1.40061 -0.36011,-2.82561 -0.0191,-3.16667 0.34106,-0.34105 0.6201,0.0774 0.6201,0.92994 0,1.41024 3.30875,3.1917 5.32433,2.86667 0.45338,-0.0731 0.53932,0.32823 0.19098,0.89185 C 225.16693,320.53885 223.79206,321 222.46,321 c -1.76122,0 -2.5963,-0.69472 -3.06108,-2.54657 z m -5.26278,-0.81042 c -0.0891,-1.21478 -0.65493,-1.65792 -1.63618,-1.28138 -1.61973,0.62154 -1.98543,-1.94834 -0.86971,-6.11163 0.84009,-3.1348 2.20325,-2.83006 1.59413,0.35637 -0.28367,1.48388 0.0291,2.93226 0.72616,3.36309 0.67342,0.4162 1.02131,1.83083 0.77309,3.14363 -0.3127,1.65382 -0.49313,1.81658 -0.58749,0.52992 z m 8.10279,-2.89301 -1.19951,-3.25 1.95803,2.5 c 2.08436,2.66128 2.49325,4 1.22175,4 -0.42942,0 -1.32054,-1.4625 -1.98027,-3.25 z m 3.83998,-0.33333 c 0.048,-1.16495 0.28494,-1.4019 0.60416,-0.60417 0.28887,0.72187 0.25335,1.58438 -0.0789,1.91667 -0.3323,0.33229 -0.56864,-0.25834 -0.52522,-1.3125 z m -6.42103,-6.9676 c 0.38788,-1.01081 -0.1568,-1.4537 -1.80093,-1.46438 C 215.9683,305.97242 215.79803,305.77677 217,305 c 0.825,-0.53316 2.2875,-0.97627 3.25,-0.98469 2.13769,-0.0187 2.38431,3.5273 0.30093,4.32677 -0.96852,0.37166 -1.26467,0.0755 -0.89301,-0.89301 z m 28.00613,-14.42399 c -1.78676,-1.80633 -1.72138,-1.82697 2.44067,-0.77053 3.47624,0.88236 3.91341,1.22769 2.33594,1.8452 -2.65059,1.03759 -2.69772,1.02698 -4.77661,-1.07467 z m 113.06716,-4.10524 c 0.35361,-1.3522 0.8069,-1.8055 1.05655,-1.05655 0.24048,0.72144 -0.0382,1.78716 -0.61931,2.36826 -0.74207,0.74207 -0.87221,0.35164 -0.43724,-1.31171 z m -131.70436,0.0968 c -1.78298,-1.10195 1.77133,-2.22892 3.6731,-1.16464 1.28594,0.71965 1.21064,0.93816 -0.47524,1.37903 -1.10182,0.28813 -2.54086,0.19165 -3.19786,-0.21439 z M 259,286.02568 c 0,-1.6748 5.98063,-4.15746 9.23667,-3.83429 3.98734,0.39576 4.69652,2.50331 1.27951,3.80246 C 266.13307,287.28011 259,287.3017 259,286.02568 Z m -98.23084,-20.98201 c -0.69118,-2.46112 -0.27771,-3.88556 0.81164,-2.7962 0.31944,0.31944 0.42272,1.63194 0.2295,2.91667 L 161.45899,267.5 Z m -1.10249,-5.71034 C 159.3,258.96667 159,258.01157 159,257.21089 c 0,-1.18064 0.28349,-1.2205 1.5,-0.21089 0.825,0.68469 1.5,1.63979 1.5,2.12244 0,1.03552 -1.38365,1.16058 -2.33333,0.21089 z m -1.39287,-6.72018 c -1.22518,-1.41638 -1.96397,-3.25698 -1.64301,-4.09338 0.32075,-0.83588 0.12254,-1.51977 -0.44047,-1.51977 -0.56301,0 -1.25063,0.5625 -1.52804,1.25 -0.31258,0.77465 -0.53441,0.61167 -0.58333,-0.42857 -0.0434,-0.92322 0.64074,-2.39826 1.52036,-3.27788 1.29165,-1.29166 1.36042,-1.88714 0.3575,-3.09559 -0.683,-0.82296 -0.95269,-1.78542 -0.59931,-2.13879 0.35337,-0.35338 0.6425,-0.0624 0.6425,0.64661 0,0.97662 0.3313,1.01415 1.36672,0.15483 1.10068,-0.91348 1.60146,-0.2959 2.57259,3.17262 0.66322,2.36879 1.06069,6.01614 0.88327,8.10522 L 160.5,255.18677 Z m -2.70951,-17.90628 c 0.37553,-0.98622 0.93469,-1.54122 1.24258,-1.23333 0.30789,0.30789 6.4e-4,1.11479 -0.68278,1.79313 -0.98762,0.98026 -1.10248,0.8654 -0.5598,-0.5598 z m 42.43017,-1.21723 -1.34351,-2.51036 -2.13992,2.01036 C 193.23168,234.19153 191.00065,235 188.96333,235 h -3.40777 l 2.03515,-2.03515 c 3.25876,-3.25877 16.00948,-7.2782 22.98774,-7.24647 6.65758,0.0303 11.71644,1.85717 9.30665,3.36092 -1.1076,0.69115 -0.93432,1.18184 0.8649,2.44921 2.24869,1.58398 3.00774,3.47149 1.39602,3.47149 -0.46968,0 -2.06787,-1.125 -3.55152,-2.5 -3.31001,-3.06761 -4.36124,-3.1399 -4.77495,-0.32833 -0.17575,1.19442 -0.95029,2.37967 -1.72119,2.63388 -1.00324,0.33083 -1.24576,-0.13388 -0.85324,-1.6349 0.32512,-1.24324 -0.079,-2.61785 -0.9926,-3.37604 -1.32948,-1.10337 -1.44478,-0.97572 -0.83995,0.92992 0.5676,1.78834 0.23989,2.32459 -1.72141,2.81685 -1.33235,0.3344 -3.27042,0.46189 -4.30681,0.28331 -1.09859,-0.1893 -1.7801,0.19655 -1.63435,0.92531 0.45139,2.25693 -2.38206,1.30602 -3.75554,-1.26036 z M 154,231.11803 c 0,-0.55 0.45,-1.27811 1,-1.61803 0.55,-0.33992 1,-0.16803 1,0.38197 0,0.55 -0.45,1.27811 -1,1.61803 -0.55,0.33992 -1,0.16803 -1,-0.38197 z m 115,-1.62008 c 0,-0.80254 2.23795,-3.12995 4.97321,-5.17201 2.73527,-2.04207 4.80209,-3.88398 4.59293,-4.09313 -0.43188,-0.43189 -4.88531,1.93226 -8.47198,4.49743 -2.37164,1.6962 -2.38899,1.68917 -1.22035,-0.49444 2.40141,-4.48708 6.62078,-5.68439 20.12619,-5.71109 11.51278,-0.0228 12.95412,0.18811 18.25,2.66997 6.58379,3.08542 7.86473,5.85891 1.75,3.78909 -0.275,-0.0931 -2.36668,-0.0963 -4.64817,-0.007 -2.2815,0.0891 -4.46598,-0.35222 -4.85441,-0.98071 -0.47604,-0.77025 -1.1796,-0.46688 -2.15853,0.93074 -1.35823,1.93914 -5.08513,3.0899 -3.92435,1.21172 0.29291,-0.47394 -1.14303,-0.81144 -3.19099,-0.75 -3.14098,0.0942 -3.77355,-0.2403 -4.0431,-2.13828 -0.17575,-1.2375 -0.9367,-2.25 -1.69098,-2.25 -1.72648,0 -3.03864,2.0107 -1.86759,2.8618 1.29257,0.93941 1.63346,4.1382 0.44101,4.1382 -0.56363,0 -1.30714,-1.125 -1.65225,-2.5 -0.3451,-1.375 -1.25367,-2.5 -2.01905,-2.5 -1.51306,0 -5.39159,3.48136 -5.39159,4.83948 0,0.46172 -1.125,1.35207 -2.5,1.97857 -2.04489,0.93171 -2.5,0.87344 -2.5,-0.3201 z m -118.85337,-3.725 c 0.1646,-2.04988 -0.25106,-4.27738 -0.92368,-4.95 C 148.55033,220.15033 148,218.10088 148,216.26862 c 0,-1.97368 -0.58559,-3.5561 -1.43686,-3.88276 -0.79027,-0.30326 -1.23917,-1.07664 -0.99754,-1.71862 0.24162,-0.64198 -1.1368,-4.29144 -3.06315,-8.10991 C 139.72479,197.05137 139,194.43893 139,189.93306 c 0,-3.12488 -0.65424,-7.53593 -1.45387,-9.80231 -0.79963,-2.26639 -1.72666,-8.51047 -2.06006,-13.87573 -0.52202,-8.40048 -0.19679,-11.76843 2.34223,-24.25502 3.41748,-16.80678 8.80044,-30.96552 11.20716,-29.47809 0.44486,0.27494 3.12387,-1.75501 5.95335,-4.51101 2.82947,-2.75599 5.63951,-5.0109 6.24451,-5.0109 0.60501,0 0.80288,-0.29714 0.43971,-0.66031 -1.30493,-1.30492 3.48469,-3.500473 8.84267,-4.053466 8.3942,-0.866358 16.79439,1.356971 24.41792,6.462836 5.98823,4.01062 6.30224,4.11913 3.56638,1.23237 -1.65,-1.741 -5.025,-4.24734 -7.5,-5.56964 -3.47569,-1.85692 -3.84702,-2.259767 -1.63134,-1.769788 5.00034,1.10578 15.98346,7.004938 20.13134,10.812778 l 4,3.67208 -4.41805,-0.60212 c -2.42992,-0.33117 -5.00311,-1.37221 -5.71819,-2.31343 -0.71509,-0.94122 -1.31446,-1.20391 -1.33196,-0.58376 -0.0175,0.62016 0.65407,1.69679 1.49237,2.39251 1.98768,1.64963 1.28321,2.23504 -3.24913,2.7 -2.04591,0.20989 -3.95726,0.74353 -4.24744,1.18586 -0.29018,0.44234 -2.3276,1.37986 -4.5276,2.08338 -2.2,0.70352 -6.025,2.70749 -8.5,4.45326 -5.87763,4.14587 -12.50646,6.9805 -14.06764,6.01563 -0.75375,-0.46584 -0.98765,-0.35667 -0.59545,0.27792 0.66817,1.08113 -3.38067,4.26389 -5.42417,4.26389 -0.793,0 -0.72534,-0.53805 0.21482,-1.70823 1.16213,-1.44647 0.85137,-1.40816 -2.02796,0.25 -2.19428,1.26364 -3.84941,3.25622 -4.66629,5.61763 l -1.26588,3.65941 4.30707,-2.65941 c 2.36889,-1.46267 4.10466,-2.9969 3.85727,-3.4094 -0.42879,-0.71496 0.10383,-0.92485 2.91823,-1.15 0.6875,-0.055 1.83428,-0.775 2.54841,-1.6 0.81008,-0.93585 0.71606,-0.29638 -0.24998,1.7003 -0.85161,1.76016 -2.16243,3.56016 -2.91293,4 -0.7505,0.43983 -2.15288,2.3747 -3.11641,4.2997 -0.96353,1.925 -3.52992,5.8835 -5.7031,8.79666 -5.05845,6.78088 -9.11827,15.39849 -7.67467,16.29068 0.75033,0.46373 0.75266,1.24225 0.008,2.6339 -0.59873,1.11873 -0.7351,3.18034 -0.31443,4.75328 0.40858,1.52774 0.43978,5.30845 0.0693,8.40159 -0.37044,3.09314 -0.42777,8.51732 -0.12741,12.05373 0.46436,5.46736 0.69277,6.06612 1.52589,4 0.94889,-2.35325 1.01849,-2.30375 2.20797,1.57016 0.6755,2.2 0.89565,4.45 0.48921,5 -1.31238,1.77593 -2.23691,8.7646 -1.06354,8.03942 1.77049,-1.09423 1.27536,11.60423 -0.54434,13.96058 -1.46599,1.89833 -1.5293,1.81053 -1.24525,-1.72705 z m 5.45167,-79.55571 c 0.49593,0.28754 2.0267,-0.88121 3.4017,-2.59722 l 2.5,-3.12002 -2.75,1.77305 c -1.5125,0.97518 -2.75,1.32876 -2.75,0.78574 0,-0.54303 -1.03682,0.009 -2.30405,1.22694 -1.26722,1.21785 -2.114,2.79 -1.88173,3.49366 0.30977,0.93843 0.75012,0.83109 1.65234,-0.40278 0.67652,-0.92519 1.6358,-1.4469 2.13174,-1.15937 z m 10.74664,-19.37398 c -0.19124,-0.36121 0.56772,-0.41735 1.68656,-0.12477 1.11885,0.29258 2.80697,-0.14616 3.75138,-0.97498 0.94442,-0.82882 2.76353,-1.82626 4.04248,-2.21654 1.27895,-0.39027 2.14276,-0.89218 1.91958,-1.11536 -0.22318,-0.22318 -2.54266,0.32233 -5.15442,1.21225 -3.50732,1.19506 -5.04166,1.325 -5.86958,0.49708 -1.32201,-1.32201 -3.07986,-1.5107 -2.29869,-0.24675 0.56522,0.91455 -2.54076,4.39924 -6.56368,7.364 -1.29721,0.956 0.15977,0.506 3.23775,-1 3.07797,-1.506 5.43985,-3.03372 5.24862,-3.39493 z M 161,117.50785 c 0,-0.17634 -1.0125,-0.0994 -2.25,0.17091 -2.19835,0.48023 -2.19261,0.44444 0.25,-1.55903 1.375,-1.1278 3.7375,-2.57071 5.25,-3.20646 1.5125,-0.63575 2.75,-1.55132 2.75,-2.03459 0,-1.38282 -0.88099,-1.09007 -6.87827,2.28563 -5.5925,3.14786 -5.60914,3.15048 -3.20112,0.50395 3.75474,-4.12665 1.73215,-4.25435 -2.3724,-0.1498 -2.83753,2.83753 -3.4018,3.95303 -2.53061,5.00275 0.82537,0.99451 0.82714,1.90038 0.007,3.43336 -0.96377,1.80082 -0.43224,1.66264 3.93061,-1.02185 2.7745,-1.70735 5.04479,-3.24854 5.04479,-3.42487 z m 14.51257,-0.11938 c 6.8924,-0.70615 9.06337,-2.14028 2.73743,-1.80833 -4.28947,0.22508 -12.25,2.2171 -12.25,3.06539 0,0.31265 0.68066,0.30726 1.51257,-0.012 0.83191,-0.31923 4.43191,-0.87952 8,-1.24508 z M 160,108 c 0,-0.55 -0.19844,-1 -0.44098,-1 -0.24254,0 -0.7191,0.45 -1.05902,1 -0.33992,0.55 -0.14148,1 0.44098,1 0.58246,0 1.05902,-0.45 1.05902,-1 z m 22,-1 c -1.375,-0.44035 -3.625,-0.81387 -5,-0.83003 -2.27259,-0.0267 -2.31807,0.0488 -0.5,0.83003 1.1,0.47269 3.35,0.8462 5,0.83003 2.9254,-0.0287 2.93783,-0.0493 0.5,-0.83003 z m -9.31027,-5.6436 C 172.19452,100.86119 167,102.74813 167,103.42323 c 0,0.26 1.37297,-0.006 3.05105,-0.59087 1.67807,-0.58498 2.86548,-1.24916 2.63868,-1.47596 z M 179.25,99.337719 c -0.6875,-0.277412 -1.8125,-0.277412 -2.5,0 -0.6875,0.277413 -0.125,0.504386 1.25,0.504386 1.375,0 1.9375,-0.226973 1.25,-0.504386 z M 147.54271,225.0691 c -0.31644,-0.512 -0.11799,-1.21356 0.44098,-1.55902 0.55897,-0.34546 1.01631,0.0734 1.01631,0.9309 0,1.75653 -0.60006,2.01516 -1.45729,0.62812 z M 259,225.02717 c -1.28525,-0.8237 -1.17946,-1.2826 0.73889,-3.20536 1.56506,-1.56866 2.55521,-1.92771 3.28992,-1.193 1.62395,1.62395 -2.06826,5.65484 -4.02881,4.39836 z M 145.5,221 c 0.33992,-0.55 0.81648,-1 1.05902,-1 0.24254,0 0.44098,0.45 0.44098,1 0,0.55 -0.47656,1 -1.05902,1 -0.58246,0 -0.7809,-0.45 -0.44098,-1 z m 54,-4 c 0.33992,-0.55 2.27898,-0.95514 4.30902,-0.90032 3.31537,0.0895 3.43657,0.18116 1.19098,0.90032 -3.61189,1.15673 -6.2149,1.15673 -5.5,0 z m 76.5,-7.35662 c 0,-0.27529 0.70714,-1.20767 1.57143,-2.07195 1.12466,-1.12466 3.47019,-1.56005 8.25,-1.53139 6.16149,0.0369 6.48501,0.14336 4.17857,1.37456 -2.50735,1.33845 -14,3.16807 -14,2.22878 z M 196.25,98.200027 c -6.12199,-2.499651 -7.98229,-4.225364 -4.5,-4.174431 0.9625,0.01408 4.20415,1.589078 7.20366,3.5 6.35244,4.046994 5.85818,4.170294 -2.70366,0.674431 z M 185,88.92902 c -4.86892,-1.342753 -5.7219,-1.809694 -3.39922,-1.860797 3.27829,-0.07213 9.25336,1.617676 10.84922,3.068258 1.22017,1.109093 0.56488,1.002887 -7.45,-1.207461 z M 196.32742,68.387463 C 199.43429,66.703535 209,64.890369 209,65.985394 c 0,0.805103 -11.15494,4.033089 -13.7349,3.974568 -1.25329,-0.02843 -0.94525,-0.484396 1.06232,-1.572499 z M 213,63 c 0,-1.019106 1.39373,-1.39199 3.89352,-1.041688 0.76644,0.107403 1.72689,-0.344128 2.13435,-1.003402 0.53825,-0.870915 1.5244,-0.924506 3.60648,-0.195992 l 2.86565,1.002688 -2.8151,1.119197 C 219.18961,64.270425 213,64.346604 213,63 Z m 16.5,0 c -0.33992,-0.55 -0.16803,-1 0.38197,-1 0.55,0 1.27811,0.45 1.61803,1 0.33992,0.55 0.16803,1 -0.38197,1 -0.55,0 -1.27811,-0.45 -1.61803,-1 z m -23.66486,-0.767025 c -0.91567,-0.190756 -1.9372,-1.056557 -2.27007,-1.924002 -0.50498,-1.315956 -0.007,-1.480127 3.00553,-0.991229 2.07771,0.337165 4.41082,0.0863 5.49512,-0.590859 1.44816,-0.904392 2.16033,-0.900833 3.07654,0.01537 0.9229,0.922902 0.87207,1.278271 -0.22504,1.573347 -0.77947,0.209644 -2.76722,0.804851 -4.41722,1.322684 -1.65,0.517833 -3.74919,0.785442 -4.66486,0.594686 z"
       id="path37221" />
  </g>
</svg>
