<?xml version="1.0" encoding="UTF-8" standalone="no"?>
<svg
   xmlns:dc="http://purl.org/dc/elements/1.1/"
   xmlns:cc="http://creativecommons.org/ns#"
   xmlns:rdf="http://www.w3.org/1999/02/22-rdf-syntax-ns#"
   xmlns:svg="http://www.w3.org/2000/svg"
   xmlns="http://www.w3.org/2000/svg"
   xmlns:xlink="http://www.w3.org/1999/xlink"
   xmlns:sodipodi="http://sodipodi.sourceforge.net/DTD/sodipodi-0.dtd"
   xmlns:inkscape="http://www.inkscape.org/namespaces/inkscape"
   version="1.1"
   id="svg32660"
   width="900"
   height="600"
   viewBox="0 0 900 600"
   sodipodi:docname="ROBOT.jpg.svg"
   inkscape:version="1.0.1 (c497b03c, 2020-09-10)">
  <metadata
     id="metadata32666">
    <rdf:RDF>
      <cc:Work
         rdf:about="">
        <dc:format>image/svg+xml</dc:format>
        <dc:type
           rdf:resource="http://purl.org/dc/dcmitype/StillImage" />
        <dc:title />
      </cc:Work>
    </rdf:RDF>
  </metadata>
  <defs
     id="defs32664">
    <linearGradient
       inkscape:collect="always"
       id="linearGradient37210">
      <stop
         style="stop-color:#000000;stop-opacity:1;"
         offset="0"
         id="stop37206" />
      <stop
         style="stop-color:#000000;stop-opacity:0;"
         offset="1"
         id="stop37208" />
    </linearGradient>
    <linearGradient
       inkscape:collect="always"
       xlink:href="#linearGradient37210"
       id="linearGradient37212"
       x1="180.50086"
       y1="285.63393"
       x2="697.11727"
       y2="285.63393"
       gradientUnits="userSpaceOnUse"
       gradientTransform="translate(17.781979,21.324724)" />
  </defs>
  <sodipodi:namedview
     pagecolor="#ffffff"
     bordercolor="#666666"
     borderopacity="1"
     objecttolerance="10"
     gridtolerance="10"
     guidetolerance="10"
     inkscape:pageopacity="0"
     inkscape:pageshadow="2"
     inkscape:window-width="1440"
     inkscape:window-height="775"
     id="namedview32662"
     showgrid="false"
     inkscape:zoom="0.83052808"
     inkscape:cx="472.15909"
     inkscape:cy="323.0446"
     inkscape:window-x="0"
     inkscape:window-y="23"
     inkscape:window-maximized="1"
     inkscape:current-layer="g32668"
     inkscape:document-rotation="0" />
  <g
     inkscape:groupmode="layer"
     inkscape:label="Image"
     id="g32668">
    <path
       id="path33273"
       style="fill:url(#linearGradient37212);fill-opacity:1;stroke:#000000;stroke-width:0.858801px;stroke-linecap:butt;stroke-linejoin:miter;stroke-opacity:1"
       d="m 386.39136,51.838396 -0.0762,132.669914 139.46485,-0.40039 -0.28516,-131.59179 z M 367.7937,65.795427 c 0,0 -11.25615,0.971756 -16.23633,3.371094 -2.83229,1.364538 -7.81029,5.408072 -9.86328,7.789059 -3.56878,4.13894 -4.91706,5.89333 -6.75781,11.03907 -2.03019,5.67531 -2.50774,13.14494 -1.69336,19.11718 0.85673,6.28287 2.92183,11.32584 7.1875,16.01758 4.3143,4.74524 11.27365,8.45009 17.25586,10.76172 3.48356,1.3461 9.33984,2.10156 9.33984,2.10156 z m 176.33984,0 0.76953,70.197263 c 0,0 5.85629,-0.75546 9.33985,-2.10156 5.98221,-2.31163 12.94156,-6.01648 17.25586,-10.76172 4.26567,-4.69174 6.32881,-9.73471 7.18554,-16.01758 0.81438,-5.97224 0.33879,-13.44187 -1.6914,-19.11718 -1.84075,-5.14574 -3.18904,-6.90013 -6.75782,-11.03907 -2.05299,-2.380987 -7.03098,-6.424521 -9.86328,-7.789059 -4.98017,-2.399338 -16.23828,-3.371094 -16.23828,-3.371094 z M 422.04565,96.29738 a 23.059417,23.059417 0 0 1 23.06055,23.06055 23.059417,23.059417 0 0 1 -23.06055,23.05859 23.059417,23.059417 0 0 1 -23.05859,-23.05859 23.059417,23.059417 0 0 1 23.05859,-23.06055 z m 68.70508,0 a 23.059417,23.059417 0 0 1 23.05859,23.06055 23.059417,23.059417 0 0 1 -23.05859,23.05859 23.059417,23.059417 0 0 1 -23.06055,-23.05859 23.059417,23.059417 0 0 1 23.06055,-23.06055 z m -159.71875,110.60546 -0.4668,16.46094 c 0,0 -10.40401,2.53399 -16.5625,4.71875 -13.33254,4.72979 -27.71592,11.07807 -39.21484,19.31836 -11.66806,8.36149 -19.82,16.82834 -27.46094,28.98047 -6.64992,10.57602 -12.17146,23.10707 -15.31054,35.19922 -2.74006,10.55498 -3.95899,32.47461 -3.95899,32.47461 0,0 -8.66708,2.78133 -12.26758,5.43555 -5.4259,3.99984 -10.32531,9.18679 -13.29492,15.23828 -2.86486,5.83801 -3.75905,12.6376 -3.78125,19.14062 -0.0251,7.36124 0.14886,13.55773 3.54297,20.08985 3.65283,7.03003 8.88657,12.46999 15.73828,16.44726 6.68253,3.87907 23.85156,7.97852 23.85156,7.97852 l -0.92773,-19.45899 c 0,0 -7.48015,-1.99491 -10.97852,-3.60742 -2.39057,-1.10188 -5.03983,-2.10077 -6.74804,-4.10352 -3.10686,-3.64254 -4.68246,-8.56633 -5.43164,-13.29492 -0.80581,-5.08602 -1.04492,-10.74084 1.13476,-15.40625 2.42872,-5.19847 7.09363,-9.69814 12.35547,-11.98633 5.12127,-2.22704 11.42514,-2.57768 16.73242,-0.83984 4.81003,1.57501 8.61827,5.62762 11.77735,9.58203 3.11429,3.89834 6.65039,13.41211 6.65039,13.41211 l 19.92773,0.98047 c 0,0 -3.12607,-10.11591 -5.32617,-15.68164 -1.49392,-3.77924 -3.85695,-8.75577 -6.50781,-11.83594 -2.5563,-2.97029 -5.11436,-6.27133 -8.54688,-8.16211 -3.48055,-1.91723 -10.67187,-3.74023 -10.67187,-3.74023 0,0 -0.81289,-6.4629 -0.4961,-9.67774 0.73311,-7.43979 2.99816,-14.69868 5.49805,-21.74414 3.1034,-8.74638 6.39535,-17.65105 11.71484,-25.25586 4.44995,-6.36172 10.45428,-11.56365 16.48633,-16.45117 5.9573,-4.82695 12.35959,-9.24173 19.27149,-12.56054 7.16669,-3.44115 23.76171,-7.78125 23.76171,-7.78125 l -0.17968,151.43945 22.00976,0.13086 0.99805,98.66601 c 0,0 -19.16458,10.90846 -26.41406,17.47852 -5.88261,5.33129 -8.59936,9.95799 -11.76563,17.23828 -3.66684,8.43124 -7.01758,25.98438 -7.01758,25.98438 l 131.3418,0.10156 c 0,0 0.0125,-0.96268 -0.004,-1.44336 -0.0948,-2.77645 -1.32167,-8.29872 -1.88281,-11.01953 -1.75562,-8.51242 -2.37347,-10.97622 -6.84765,-18.42774 -3.76411,-6.26894 -8.51929,-13.38664 -14.25977,-17.91601 -5.6804,-4.48197 -20.08008,-12.22071 -20.08008,-12.22071 l -1.45117,-99.44726 118.94922,-0.11328 0.13476,100.48047 c 0,0 -11.71684,5.59858 -15.95703,8.51171 -6.8212,4.68634 -10.63316,8.62098 -15.37695,15.40235 -3.22259,4.60679 -5.81225,9.73961 -7.5332,15.0918 -2.20836,6.86804 -3.43164,21.36914 -3.43164,21.36914 l 127.82422,-0.85547 c 0,0 0.98247,-4.75307 0.45898,-6.84375 -1.21426,-4.84944 -1.04679,-10.06855 -2.88672,-14.7168 -2.68224,-6.77619 -7.01169,-12.87379 -11.61523,-18.52344 -4.12685,-5.06464 -8.85552,-9.73736 -14.16016,-13.55078 -4.00825,-2.88145 -13.11328,-6.88086 -13.11328,-6.88086 l -0.98047,-99.23242 22.71484,0.20508 -0.125,-151.01758 c 0,0 18.472,4.78879 26.84961,9.17969 9.61723,5.04062 18.72802,11.47617 26.20313,19.35156 5.39307,5.68186 9.60298,12.52887 12.95898,19.60742 3.86662,8.15557 8.03906,25.85547 8.03906,25.85547 l 2.49219,17.10547 c 0,0 -11.05261,6.39204 -15.75,10.64453 -4.675,4.23222 -8.50419,9.08491 -11.04297,14.85742 -2.28977,5.20688 -3.34961,16.59961 -3.34961,16.59961 l 19.38868,-0.38476 c 0,0 0.005,-3.4283 0.34765,-5.09571 0.71535,-3.48192 1.25899,-7.32603 3.52539,-10.06445 3.17483,-3.83605 8.09,-6.30081 12.92578,-7.48828 5.11541,-1.25613 10.79755,-0.99473 15.78907,0.6875 4.56291,1.53777 9.19102,4.23344 11.86718,8.23633 3.37161,5.04311 4.50833,11.74826 3.87305,17.78125 -0.46328,4.3996 -2.7325,8.61641 -5.46484,12.0957 -2.12353,2.70404 -5.00148,4.91656 -8.125,6.35352 -3.32635,1.53027 -10.76758,2.16796 -10.76758,2.16796 l -0.59961,18.97852 c 0,0 5.85366,0.62753 8.71484,0.125 5.85913,-1.0291 11.16754,-4.45835 16.03321,-7.88086 5.39772,-3.79675 10.28803,-7.73884 13.51367,-13.49609 3.23785,-5.77905 5.87052,-12.28 6.14844,-18.89844 0.29726,-7.07899 -1.80754,-14.29621 -4.85743,-20.69141 -2.85852,-5.99396 -7.26985,-11.30286 -12.20507,-15.74609 -3.47425,-3.12791 -11.92383,-7.38477 -11.92383,-7.38477 0,0 -2.72904,-20.02768 -5.4043,-29.74218 -2.64323,-9.59818 -5.73411,-19.21268 -10.45703,-27.97657 -4.91875,-9.12729 -11.31274,-17.49886 -18.3457,-25.11718 -5.59667,-6.06248 -11.98199,-11.44333 -18.75977,-16.14844 -7.62023,-5.28995 -15.75476,-10.00997 -24.38476,-13.41211 -8.53668,-3.36536 -26.6836,-6.76172 -26.6836,-6.76172 l -0.92383,-15.89062 z m 81.85156,76.3125 h 24.89453 v 24.89454 h -24.89453 z m 30.91602,0 h 24.89648 v 24.89454 h -24.89648 z m 31.08398,0 h 24.89453 v 24.89454 h -24.89453 z m -62,29.19922 h 24.89453 v 24.89454 h -24.89453 z m 30.91602,0 h 24.89648 v 24.89454 h -24.89648 z m 30.91601,0 h 24.89649 v 24.89454 h -24.89649 z" />
  </g>
</svg>
